<svg width="11" height="6" viewBox="0 0 11 6" fill="none" xmlns="http://www.w3.org/2000/svg">
<path fill-rule="evenodd" clip-rule="evenodd" d="M10.8631 0.129395C9.51229 1.10487 7.63728 1.70925 5.56465 1.70925C3.49208 1.70925 1.61712 1.10491 0.26632 0.129479C0.250032 0.299045 0.241699 0.470935 0.241699 0.644771C0.241699 3.58459 2.62489 5.96779 5.56471 5.96779C8.50453 5.96779 10.8877 3.58459 10.8877 0.644771C10.8877 0.470905 10.8794 0.298989 10.8631 0.129395Z" fill="url(#paint0_linear_3171_259)"/>
<path fill-rule="evenodd" clip-rule="evenodd" d="M9.69957 1.91022C8.46755 2.42364 7.05362 2.70925 5.56465 2.70925C4.07574 2.70925 2.66186 2.42366 1.42988 1.91028C1.97096 3.68036 3.61749 4.96779 5.56471 4.96779C7.51196 4.96779 9.1585 3.68034 9.69957 1.91022ZM9.88704 0.722913C8.66801 1.34393 7.17606 1.70925 5.56465 1.70925C3.9533 1.70925 2.46139 1.34395 1.24239 0.722979C1.19207 0.697343 1.14221 0.671271 1.09283 0.644772C0.799819 0.48754 0.523566 0.315239 0.266322 0.12948C0.266321 0.12948 0.266321 0.12948 0.26632 0.129479C0.26632 0.129481 0.26632 0.129482 0.26632 0.129483C0.250032 0.299048 0.241699 0.470937 0.241699 0.644772C0.241699 0.87949 0.256891 1.11066 0.286345 1.33735C0.625801 3.94995 2.85961 5.96779 5.56471 5.96779C8.26984 5.96779 10.5037 3.94991 10.8431 1.33727C10.8725 1.11061 10.8877 0.879461 10.8877 0.644772C10.8877 0.470905 10.8794 0.298989 10.8631 0.129395C10.6058 0.315186 10.3295 0.487516 10.0365 0.644772C9.98713 0.67125 9.93732 0.697297 9.88704 0.722913Z" fill="url(#paint1_linear_3171_259)"/>
<defs>
<linearGradient id="paint0_linear_3171_259" x1="10.8877" y1="-0.500395" x2="-7.14545" y2="12.373" gradientUnits="userSpaceOnUse">
<stop stop-color="#037FF7"/>
<stop offset="1" stop-color="#2549A6"/>
</linearGradient>
<linearGradient id="paint1_linear_3171_259" x1="10.8877" y1="-0.500395" x2="-7.14545" y2="12.373" gradientUnits="userSpaceOnUse">
<stop stop-color="#037FF7"/>
<stop offset="1" stop-color="#2549A6"/>
</linearGradient>
</defs>
</svg>
