<svg width="620" height="70" viewBox="0 0 620 70" fill="none" xmlns="http://www.w3.org/2000/svg">
<path fill-rule="evenodd" clip-rule="evenodd" d="M332.832 21.7146C331.051 25.9515 330.145 30.5107 330.171 35.1129C330.076 41.347 331.674 47.4885 334.792 52.8718C337.815 58.0645 342.222 62.2967 347.513 65.0862C353.114 68.0359 359.355 69.5309 365.672 69.4361C375.977 69.5657 385.991 65.9972 393.928 59.3674V29.632H363.891V42.8084H376.879V51.0642C374.106 52.9598 370.613 53.9077 366.401 53.9077C361.242 53.9042 357.001 52.1582 353.68 48.6699C350.358 45.1816 348.697 40.7489 348.697 35.3719C348.697 30.3367 350.306 26.0838 353.522 22.6131C355.018 20.9398 356.853 19.6097 358.902 18.7125C360.951 17.8153 363.167 17.372 365.4 17.4123C368.265 17.3666 371.111 17.8799 373.783 18.9239C376.451 20.0576 378.927 21.6075 381.118 23.5169L391.707 10.7052C388.229 7.6091 384.237 5.15771 379.913 3.46423C375.676 1.82225 370.805 1.00125 365.3 1.00125C360.51 0.961684 355.758 1.85913 351.306 3.64393C347.15 5.28702 343.355 7.73834 340.136 10.8584C337.007 13.9489 334.524 17.6402 332.832 21.7146ZM60.865 21.9312C59.0653 26.1247 58.1465 30.649 58.1668 35.2186C58.1016 41.2832 59.662 47.2528 62.6831 52.4964C65.6876 57.6966 70.0331 61.9781 75.2575 64.8853C80.7388 67.9577 86.9215 69.5302 93.1916 69.4466C97.9678 69.4773 102.703 68.5596 107.128 66.7458C111.287 65.0717 115.08 62.592 118.293 59.4467C121.425 56.3277 123.917 52.6173 125.628 48.5271C127.426 44.3255 128.347 39.7951 128.332 35.2186C128.349 30.6234 127.442 26.0724 125.665 21.8414C123.988 17.7599 121.521 14.0567 118.408 10.9483C115.21 7.81938 111.435 5.35388 107.296 3.69148C98.336 0.0951983 88.3497 0.104651 79.3965 3.7179C75.2263 5.38741 71.4221 7.86744 68.2001 11.017C65.073 14.1378 62.5812 17.8455 60.865 21.9312ZM81.4032 47.7713C78.283 44.3587 76.5932 39.8602 76.6878 35.2186H76.6983C76.7087 30.2574 78.2596 26.0521 81.3508 22.6025C84.442 19.1529 88.4011 17.4281 93.2283 17.4281C98.1183 17.4281 102.135 19.1758 105.279 22.6712C108.398 26.0825 110.087 30.5788 109.994 35.2186C109.98 40.1833 108.429 44.3905 105.342 47.84C102.254 51.2896 98.265 53.0144 93.375 53.0144C91.1216 53.0717 88.8828 52.6322 86.8151 51.7267C84.7474 50.8211 82.9004 49.4713 81.4032 47.7713ZM0 2.28027V68.1199H18.0704V44.6107H48.9299V29.4576H18.0704V18.3002H52.2045V2.28027H0ZM133.079 68.1199L155.429 34.6478L133.99 2.28027H154.79L166.353 20.8266L178 2.28027H198.303L176.863 34.4469L199.256 68.1041H178.456L165.94 48.2681L153.365 68.1041L133.079 68.1199ZM230.687 2.26977V68.1041H255.443C260.784 68.1776 266.099 67.334 271.16 65.6095C275.507 64.1551 279.503 61.7983 282.891 58.6909C285.998 55.7562 288.449 52.1867 290.08 48.2206C291.789 44.0549 292.648 39.5842 292.605 35.076C292.658 30.5345 291.807 26.0286 290.101 21.8256C288.492 17.8881 286.058 14.3486 282.965 11.4504C279.613 8.39898 275.66 6.09548 271.365 4.69046C266.357 3.02 261.109 2.20192 255.835 2.26977H230.687ZM256.129 52.0842H248.752V18.2738H256.113C261.587 18.2738 265.953 19.7801 269.211 22.7928C272.47 25.8054 274.1 29.9227 274.1 35.1447C274.096 40.504 272.472 44.6671 269.227 47.634C265.982 50.6008 261.616 52.0842 256.129 52.0842ZM302.319 68.104V2.26965H320.384V68.104H302.319ZM404.396 68.104V2.26965H422.461V68.104H404.396ZM430.834 2.26965V18.2948H450.403V68.104H468.473V18.2948H488.084V2.26965H430.834ZM490.724 68.1041L518.534 1.80994H535.95L563.718 68.1041H544.333L539.555 56.3495H514.406L509.753 68.1041H490.724ZM519.708 42.1689H534.378L527.095 23.4376L519.708 42.1689ZM570.047 2.26965V68.104H619.742V52.0841H588.113V2.26965H570.047Z" fill="url(#paint0_linear_77_61)"/>
<defs>
<linearGradient id="paint0_linear_77_61" x1="619.742" y1="-6.3837" x2="502.908" y2="407.746" gradientUnits="userSpaceOnUse">
<stop stop-color="#0085FF"/>
<stop offset="1" stop-color="#2549A6"/>
</linearGradient>
</defs>
</svg>
