<svg width="1733" height="74" viewBox="0 0 1733 74" fill="none" xmlns="http://www.w3.org/2000/svg">
<path fill-rule="evenodd" clip-rule="evenodd" d="M1699.22 1.64367L1731.04 33.4635C1732.99 35.4161 1732.99 38.5819 1731.04 40.5345L1699.22 72.3543C1697.26 74.307 1694.1 74.307 1692.14 72.3543C1690.19 70.4017 1690.19 67.2359 1692.14 65.2833L1715.43 41.999H1702.17C1699.41 41.999 1697.17 39.7604 1697.17 36.999C1697.17 34.2376 1699.41 31.999 1702.17 31.999H1715.43L1692.14 8.71473C1690.19 6.76211 1690.19 3.59629 1692.14 1.64367C1694.1 -0.308956 1697.26 -0.308956 1699.22 1.64367ZM0 36.999C0 34.2376 2.23858 31.999 5 31.999H30.3309C33.0923 31.999 35.3309 34.2376 35.3309 36.999C35.3309 39.7604 33.0923 41.999 30.3309 41.999H5C2.23858 41.999 0 39.7604 0 36.999ZM75.9926 36.999C75.9926 34.2376 78.2312 31.999 80.9926 31.999H131.654C134.416 31.999 136.654 34.2376 136.654 36.999C136.654 39.7604 134.416 41.999 131.654 41.999H80.9926C78.2312 41.999 75.9926 39.7604 75.9926 36.999ZM177.316 36.999C177.316 34.2376 179.555 31.999 182.316 31.999H232.978C235.739 31.999 237.978 34.2376 237.978 36.999C237.978 39.7604 235.739 41.999 232.978 41.999H182.316C179.555 41.999 177.316 39.7604 177.316 36.999ZM278.64 36.999C278.64 34.2376 280.878 31.999 283.64 31.999H334.301C337.063 31.999 339.301 34.2376 339.301 36.999C339.301 39.7604 337.063 41.999 334.301 41.999H283.64C280.878 41.999 278.64 39.7604 278.64 36.999ZM379.963 36.999C379.963 34.2376 382.202 31.999 384.963 31.999H435.625C438.386 31.999 440.625 34.2376 440.625 36.999C440.625 39.7604 438.386 41.999 435.625 41.999H384.963C382.202 41.999 379.963 39.7604 379.963 36.999ZM481.287 36.999C481.287 34.2376 483.525 31.999 486.287 31.999H536.949C539.71 31.999 541.949 34.2376 541.949 36.999C541.949 39.7604 539.71 41.999 536.949 41.999H486.287C483.525 41.999 481.287 39.7604 481.287 36.999ZM582.61 36.999C582.61 34.2376 584.849 31.999 587.61 31.999H638.272C641.033 31.999 643.272 34.2376 643.272 36.999C643.272 39.7604 641.033 41.999 638.272 41.999H587.61C584.849 41.999 582.61 39.7604 582.61 36.999ZM683.934 36.999C683.934 34.2376 686.172 31.999 688.934 31.999H739.596C742.357 31.999 744.596 34.2376 744.596 36.999C744.596 39.7604 742.357 41.999 739.596 41.999H688.934C686.172 41.999 683.934 39.7604 683.934 36.999ZM785.257 36.999C785.257 34.2376 787.496 31.999 790.257 31.999H840.919C843.68 31.999 845.919 34.2376 845.919 36.999C845.919 39.7604 843.68 41.999 840.919 41.999H790.257C787.496 41.999 785.257 39.7604 785.257 36.999ZM886.581 36.999C886.581 34.2376 888.819 31.999 891.581 31.999H942.242C945.004 31.999 947.242 34.2376 947.242 36.999C947.242 39.7604 945.004 41.999 942.242 41.999H891.581C888.819 41.999 886.581 39.7604 886.581 36.999ZM987.904 36.999C987.904 34.2376 990.143 31.999 992.904 31.999H1043.57C1046.33 31.999 1048.57 34.2376 1048.57 36.999C1048.57 39.7604 1046.33 41.999 1043.57 41.999H992.904C990.143 41.999 987.904 39.7604 987.904 36.999ZM1089.23 36.999C1089.23 34.2376 1091.47 31.999 1094.23 31.999H1144.89C1147.65 31.999 1149.89 34.2376 1149.89 36.999C1149.89 39.7604 1147.65 41.999 1144.89 41.999H1094.23C1091.47 41.999 1089.23 39.7604 1089.23 36.999ZM1190.55 36.999C1190.55 34.2376 1192.79 31.999 1195.55 31.999H1246.21C1248.97 31.999 1251.21 34.2376 1251.21 36.999C1251.21 39.7604 1248.97 41.999 1246.21 41.999H1195.55C1192.79 41.999 1190.55 39.7604 1190.55 36.999ZM1291.87 36.999C1291.87 34.2376 1294.11 31.999 1296.87 31.999H1347.54C1350.3 31.999 1352.54 34.2376 1352.54 36.999C1352.54 39.7604 1350.3 41.999 1347.54 41.999H1296.87C1294.11 41.999 1291.87 39.7604 1291.87 36.999ZM1393.2 36.999C1393.2 34.2376 1395.44 31.999 1398.2 31.999H1448.86C1451.62 31.999 1453.86 34.2376 1453.86 36.999C1453.86 39.7604 1451.62 41.999 1448.86 41.999H1398.2C1395.44 41.999 1393.2 39.7604 1393.2 36.999ZM1494.52 36.999C1494.52 34.2376 1496.76 31.999 1499.52 31.999H1550.18C1552.94 31.999 1555.18 34.2376 1555.18 36.999C1555.18 39.7604 1552.94 41.999 1550.18 41.999H1499.52C1496.76 41.999 1494.52 39.7604 1494.52 36.999ZM1595.85 36.999C1595.85 34.2376 1598.08 31.999 1600.85 31.999H1651.51C1654.27 31.999 1656.51 34.2376 1656.51 36.999C1656.51 39.7604 1654.27 41.999 1651.51 41.999H1600.85C1598.08 41.999 1595.85 39.7604 1595.85 36.999Z" fill="#1F7CE3"/>
</svg>
