<svg width="241" height="269" viewBox="0 0 241 269" fill="none" xmlns="http://www.w3.org/2000/svg">
<path opacity="0.07" fill-rule="evenodd" clip-rule="evenodd" d="M152.417 346.726C152.417 346.726 248.805 169.615 239.573 103.932C230.342 38.2488 169.612 -7.51443 103.929 1.7167C38.2465 10.9478 -7.51669 71.6777 1.71445 137.361C10.9456 203.044 152.417 346.726 152.417 346.726ZM133.176 48.5485C131.652 46.3398 129.25 44.8913 126.581 44.5711C123.912 44.2508 121.233 45.0898 119.225 46.8747C116.314 49.462 114.252 52.8447 112.735 56.0975C111.176 59.4393 109.923 63.2322 108.898 67.1747C106.848 75.0569 105.502 84.3528 104.667 93.5919C103.607 105.327 103.323 117.573 103.63 127.548C98.7109 125.156 95.6269 122.134 93.4681 118.903C89.5422 113.027 87.7825 105.215 86.3249 94.8438C85.7984 91.0978 83.0623 88.0385 79.3924 87.0924C75.7224 86.1463 71.8414 87.4998 69.559 90.5217C58.6527 104.962 54.6415 122.462 56.9713 139.039C59.3012 155.617 67.9806 171.333 82.4446 182.208C111.377 203.96 152.516 198.178 174.332 169.294C185.238 154.853 189.25 137.354 186.92 120.776C184.59 104.199 175.911 88.4824 161.446 77.6078C155.187 72.902 151.066 69.7567 147.027 65.7746C143.037 61.8404 138.924 56.8749 133.176 48.5485Z" fill="black"/>
</svg>
