<svg width="239" height="244" viewBox="0 0 239 244" fill="none" xmlns="http://www.w3.org/2000/svg">
<g opacity="0.05">
<path d="M81.1072 5.23741C71.4304 6.5974 64.6883 15.5445 66.0482 25.2213C67.4082 34.8982 76.3553 41.6403 86.0322 40.2803L121.075 35.3553C130.752 33.9954 137.494 25.0482 136.134 15.3714C134.774 5.6946 125.827 -1.04753 116.15 0.312457L81.1072 5.23741Z" fill="#111827"/>
<path fill-rule="evenodd" clip-rule="evenodd" d="M0.887435 70.1141C-1.83254 50.7605 11.6517 32.8663 31.0054 30.1463C35.0853 59.1768 61.9266 79.4032 90.9571 75.3232L126 70.3982C155.03 66.3183 175.257 39.4769 171.177 10.4465C190.531 7.72649 208.425 21.2107 211.145 40.5644L238.232 233.3C240.952 252.654 227.468 270.548 208.114 273.268L67.9425 292.968C48.5889 295.688 30.6947 282.204 27.9747 262.85L0.887435 70.1141ZM185.024 146.207C190.904 138.403 189.345 127.309 181.541 121.428C173.737 115.547 162.643 117.107 156.762 124.911L107.174 190.716L81.3374 171.246C73.5332 165.365 62.4392 166.924 56.5583 174.729C50.6775 182.533 52.2366 193.627 60.0408 199.508L100.009 229.625C107.813 235.506 118.907 233.947 124.788 226.143L185.024 146.207Z" fill="#111827"/>
</g>
</svg>
