<svg width="306" height="39" viewBox="0 0 306 39" fill="none" xmlns="http://www.w3.org/2000/svg">
<path fill-rule="evenodd" clip-rule="evenodd" d="M0 0.15229H11.84V13.5815H32.9962V0.15229H44.6885V37.8509H32.9962V21.9851H11.7057V37.6986H0V0.15229ZM46.0309 0.15229H57.5755L69.7108 14.6475L81.6984 0.15229H93.0954L75.4831 23.2034V37.8509H63.7908V22.1374L46.0309 0.15229ZM94.5855 0.15229H106.278V29.3088H125.071C128.025 29.3088 129.958 26.263 129.958 23.0511V0.15229H141.65V30.2226C141.65 34.9574 136.468 37.6986 133.515 37.6986H94.5855V0.15229ZM144.16 0.15229H183.09C187.681 0.15229 191.372 3.04579 191.372 8.92971V37.7678L179.68 37.8371V14.9659C179.68 11.7678 178.647 9.8573 174.646 9.8573H157.034V37.9478H144.16V0.15229ZM194.93 0.15229H228.96C235.766 0.15229 241.028 5.80085 241.028 10.148V27.4675C240.947 30.5133 236.813 37.8371 231.631 37.8371H194.93V0.15229ZM206.837 29.4611H224.798C227.389 29.4611 229.389 27.4814 229.389 25.0309V14.0383C229.389 11.3663 227.255 9.77423 224.53 9.77423H206.837V29.4611ZM255.459 0H291.945V37.8509H278.924V28.0905H256.506V37.8509H243.337V13.2769C243.015 5.0394 250.129 0 255.459 0ZM256.345 13.443V19.5346H278.843V9.91267H259.889C257.674 9.91267 256.345 11.2971 256.345 13.443ZM294.308 0.0830671H306V39H294.308V0.0830671Z" fill="url(#paint0_linear_753_378)"/>
<defs>
<linearGradient id="paint0_linear_753_378" x1="306" y1="-4.20695" x2="231.018" y2="226.118" gradientUnits="userSpaceOnUse">
<stop stop-color="#037FF7"/>
<stop offset="1" stop-color="#2549A6"/>
</linearGradient>
</defs>
</svg>
