<svg width="332" height="92" viewBox="0 0 332 92" fill="none" xmlns="http://www.w3.org/2000/svg">
<path d="M37.3471 19.104C43.1692 34.0231 33.6173 43.575 24.1564 53.1269C15.3323 62.8608 7.5088 73.0494 23.1557 91.3345C17.2426 76.4153 26.8855 66.8634 36.3464 57.3115C45.2615 47.4867 53.085 37.389 37.3471 19.104Z" fill="#060606"/>
<path d="M23.1562 0C29.0692 14.9191 19.4264 24.471 9.96546 34.0229C1.14133 43.8477 -6.68212 53.9454 8.96479 72.2305C3.05171 57.3113 12.6946 47.7594 22.1555 38.2076C31.0706 28.4737 38.894 18.285 23.1562 0Z" fill="#060606"/>
<path d="M264.227 58.9487V89.4238H277.509V78.2344H292.155V71.5936H277.509V65.6805H306.619V89.4238H319.901V65.6805H332V58.9487" fill="#060606"/>
<path d="M235.664 82.7829V77.5067H253.039V70.8659H235.664V65.6805H257.951V58.9487H222.291V89.4238H258.224V82.7829" fill="#060606"/>
<path d="M95.1146 58.9487H58.1807V65.6805H69.9158V89.4238H83.2885V65.6805H95.1146" fill="#060606"/>
<path d="M105.211 77.8706L111.397 66.1354L117.31 77.8706H105.211ZM121.404 58.9487H107.122L90.4741 89.4238H99.1163L101.845 84.2385H120.494L123.223 89.4238H137.961" fill="#060606"/>
<path d="M205.915 58.9487V74.2317L184.628 58.9487H174.258V89.4238H183.446V72.6853L205.279 89.4238H215.103V58.9487" fill="#060606"/>
<path d="M169.8 58.9487H133.594V65.6805H145.42V89.4238H158.793V65.6805H169.8" fill="#060606"/>
</svg>
