<svg width="289" height="93" viewBox="0 0 289 93" fill="none" xmlns="http://www.w3.org/2000/svg">
<g opacity="0.7">
<path d="M43.1425 12.5152V41.0897C43.1425 46.748 45.1229 50.143 47.1033 51.5576V51.8405H29.8454V51.5576C31.5429 50.4259 33.5233 46.748 33.5233 41.0897V28.3585H14.2851V40.5239C14.2851 46.4651 16.2655 49.8601 17.963 51.2747V51.5576H0.705078V51.2747C2.40257 50.143 4.6659 46.4651 4.6659 40.5239V12.2322C4.6659 6.29101 2.68549 2.89603 0.705078 1.48145V1.76436H17.963C16.2655 2.89602 14.2851 6.57394 14.2851 12.5152V21.2856H33.2404V12.5152C33.2404 6.57394 31.26 3.17894 29.5625 1.76436H46.8204C45.1229 3.17894 43.1425 6.57394 43.1425 12.5152Z" fill="#060606"/>
<path d="M102.272 51.5569L86.1461 51.8398V51.5569C87.2777 50.7082 87.8436 47.5961 86.1461 42.7865L85.5802 41.6548H66.6248L66.3419 42.7865C64.3615 47.879 65.2103 50.7082 66.059 51.5569V51.8398H51.0645V51.5569C53.0449 49.8594 56.1569 45.3327 57.8544 39.9573L68.6053 10.2512C70.0198 6.00741 68.6053 2.89534 67.1907 1.76367H86.1461C84.7315 2.89534 83.3169 6.00741 84.7315 10.2512L95.1994 39.9573C97.1798 45.3327 100.292 49.8594 102.272 51.5569ZM72.2832 26.3774L69.454 34.5819H83.5998L80.7706 26.3774C79.0731 21.8507 77.3757 16.7582 76.5269 11.3828H76.244C75.3952 16.7582 73.6977 21.5678 72.2832 26.3774Z" fill="#060606"/>
<path d="M203.272 51.5576L187.146 51.8405V51.5576C188.278 50.7088 188.843 47.5968 187.146 42.7872L186.58 41.6555H167.625V42.7872C165.644 47.8797 166.493 50.7088 167.342 51.5576V51.8405H152.347V51.5576C154.328 49.8601 157.44 45.3334 159.137 39.958L169.605 10.2518C171.02 6.0081 169.605 2.89602 168.19 1.76436V1.48145H187.146V1.76436C185.731 2.89602 184.317 6.0081 185.731 10.2518L196.199 39.958C198.18 45.3334 201.292 49.8601 203.272 51.5576ZM173.283 26.378L170.454 34.5826H184.6L181.77 26.378C180.073 21.8514 178.375 16.7589 177.527 11.3835H177.244C176.395 16.7589 174.698 21.5685 173.283 26.378Z" fill="#060606"/>
<path d="M151.221 50.4259L136.509 53.2551C135.66 50.4259 134.529 47.8797 132.831 45.3334L121.797 26.378H125.192C131.417 26.378 134.812 23.8318 134.812 17.6077C134.812 12.2322 131.417 9.12017 125.192 9.12017H120.1V41.3726C120.1 47.0309 122.08 50.4259 123.778 51.8405V52.1234H106.52V51.8405C108.5 50.7088 110.481 47.0309 110.481 41.0897V12.2322C110.481 6.57392 108.5 3.17894 106.52 1.76436V1.48145H126.89C138.207 1.48145 144.997 7.42269 144.997 16.7589C144.997 24.3977 141.319 28.9243 135.377 30.9047L141.885 41.6555C144.714 46.4651 147.826 49.2943 151.221 50.4259Z" fill="#060606"/>
<path d="M242.597 14.2127C240.9 11.3835 237.505 8.83726 233.261 8.83726H227.885V40.2409C227.885 46.4651 229.866 50.143 232.129 51.5576V51.8405H213.74V51.5576C215.72 50.4259 217.983 46.4651 217.983 40.2409V9.12017H212.608C208.364 9.12017 204.969 11.6664 203.272 14.4956H202.989L204.12 1.48145C207.515 2.04728 210.345 2.04727 213.74 2.04727H230.997C234.392 2.04727 237.505 1.76436 240.617 1.48145L242.597 14.2127Z" fill="#060606"/>
<path d="M257.596 49.8595L256.464 37.6941H256.747C260.991 43.3524 265.517 45.3329 271.458 45.3329C277.117 45.05 279.663 42.7866 279.663 38.8258C279.663 33.7333 275.419 32.0358 270.327 30.0554C264.103 27.5091 257.313 24.3971 257.313 14.495C257.313 7.42211 263.254 0.915039 274.288 0.915039C277.965 0.915039 281.36 1.48087 285.604 2.32962L286.453 14.2121H286.17C283.058 9.40252 279.097 8.27085 274.853 8.27085C269.478 8.27085 266.649 10.2513 266.649 13.9292C266.649 18.1729 270.61 19.8704 275.136 21.5679C281.36 24.1142 288.999 27.5092 288.999 38.26C288.999 46.1816 283.058 52.6887 271.458 52.9716C266.083 52.9716 260.708 51.8399 257.596 49.8595Z" fill="#060606"/>
<path d="M247.691 14.212C247.691 14.4949 247.691 16.1924 247.691 16.4753L252.501 15.6266V14.212L253.067 5.7245C253.35 4.027 253.35 2.89534 253.632 1.76367H246.56C246.842 2.89534 247.125 4.027 247.125 5.7245L247.691 14.212Z" fill="#060606"/>
<path d="M4.38184 92.0138V71.9268H7.49391V92.0138H4.38184Z" fill="#060606"/>
<path d="M43.1441 92.0138L40.3149 83.8092H38.6174V92.0138H35.5054V71.9268H40.5979C44.2758 71.9268 45.6904 73.6242 45.6904 77.868C45.6904 80.4142 45.1245 82.1117 43.427 82.9605L46.2562 91.7309L43.1441 92.0138ZM40.5979 75.0388H38.6174V80.9801H40.5979C42.2954 80.9801 42.5783 79.5655 42.5783 77.868C42.5783 76.4534 42.2954 75.0388 40.5979 75.0388Z" fill="#060606"/>
<path d="M74.2627 92.0138V71.9268H77.3748V92.0138H74.2627Z" fill="#060606"/>
<path d="M114.437 90.8821C113.588 91.7309 112.173 92.2967 110.476 92.2967C108.778 92.2967 107.364 91.7309 106.515 90.8821C105.949 90.0334 105.383 88.9017 105.383 86.6384H108.495C108.495 87.7701 108.495 88.3359 109.061 88.9017C109.344 89.1846 109.91 89.4676 110.476 89.4676C111.042 89.4676 111.607 89.1846 111.89 88.9017C112.173 88.3359 112.456 87.7701 112.456 86.6384C112.456 84.658 112.173 84.0921 110.476 83.5263L108.212 82.3946C106.232 81.5459 105.383 80.4142 105.383 77.3021C105.383 75.6047 105.949 74.1901 107.081 73.0584C107.93 72.2097 109.061 71.9268 110.476 71.9268C112.173 71.9268 113.305 72.2097 113.871 73.0584C115.002 74.1901 115.285 75.6047 115.285 77.3021H112.173C112.173 76.4534 112.173 75.6047 111.607 75.3217C111.325 75.0388 111.042 74.7559 110.193 74.7559C109.627 74.7559 109.061 75.0388 108.778 75.3217C108.495 75.6047 108.212 76.4534 108.212 77.3021C108.212 78.9996 108.495 79.2826 109.91 80.1313L112.173 80.9801C114.437 82.1117 115.285 83.2434 115.285 86.6384C115.851 88.6188 115.568 90.0334 114.437 90.8821Z" fill="#060606"/>
<path d="M150.651 92.0138V83.2434H146.69V92.0138H143.578V71.9268H146.69V80.4142H150.651V71.9268H153.763V92.0138H150.651Z" fill="#060606"/>
<path d="M204.971 84.3744H202.991V92.296H199.879V72.209H204.971C208.649 72.209 210.064 74.1894 210.064 78.4331C210.064 82.394 208.649 84.3744 204.971 84.3744ZM204.971 75.0381H203.274V81.5452H204.971C206.669 81.5452 206.952 80.4135 206.952 78.4331C206.952 76.1698 206.669 75.0381 204.971 75.0381Z" fill="#060606"/>
<path d="M246.846 90.8814C245.997 92.0131 244.582 92.296 243.168 92.296C241.753 92.296 240.339 91.7302 239.49 90.8814C238.641 90.0327 238.075 88.6181 238.075 87.2035V72.209H241.187V87.4865C241.187 88.901 242.036 89.7498 243.168 89.7498C244.299 89.7498 245.148 89.184 245.148 87.4865V72.209H248.26V87.2035C248.26 88.6181 247.694 90.0327 246.846 90.8814Z" fill="#060606"/>
<path d="M285.038 90.8821C284.189 91.7309 283.058 92.0138 281.077 92.0138H276.268V71.9268H281.077C283.058 71.9268 284.189 72.2097 285.038 73.0584C285.887 73.9072 286.17 75.0388 286.17 77.0192C286.17 78.4338 285.887 79.5655 285.038 80.4142C284.755 80.6972 284.472 80.9801 283.906 80.9801C284.189 81.263 284.755 81.5459 285.038 81.5459C285.887 82.3946 286.17 83.8092 286.17 85.5067C286.453 88.6188 286.17 89.7505 285.038 90.8821ZM281.077 75.0388H279.663V80.4142H281.077C282.775 80.4142 283.34 79.5655 283.34 77.5851C283.34 75.6047 282.775 75.0388 281.077 75.0388ZM281.077 82.9605H279.663V89.1846H281.077C282.775 89.1846 283.34 88.3359 283.34 86.0726C283.34 83.8092 282.775 82.9605 281.077 82.9605Z" fill="#060606"/>
</g>
</svg>
