<svg width="196" height="195" viewBox="0 0 196 195" fill="none" xmlns="http://www.w3.org/2000/svg">
<g opacity="0.7">
<path d="M40.486 184.763V165.506C40.486 164.044 40.2423 163.556 40.2423 163.313C40.2423 163.069 39.7548 162.338 39.0235 162.338C38.2923 162.338 37.8048 162.825 37.561 163.313C37.561 163.556 37.3173 164.044 37.3173 165.019V184.763H33.9048V159.656H37.0735V161.363C37.3173 160.875 37.8048 160.388 38.2923 159.9C39.0235 159.413 39.7548 159.169 40.7298 159.169C42.1923 159.169 42.9235 159.9 43.1673 160.388C43.6548 161.119 43.8985 162.338 43.8985 165.019V184.763H40.486Z" fill="#060606"/>
<path d="M10.5048 173.306V178.425C10.5048 178.912 10.5048 179.887 10.7485 180.375C11.236 181.594 12.211 181.594 12.9423 181.594C13.4298 181.594 13.9173 181.594 14.4049 181.106C14.8924 180.375 14.8922 179.156 14.8922 178.669V176.962C14.8922 175.012 14.4049 173.306 13.4298 171.6L10.261 166.481C9.52979 165.262 8.79853 164.044 8.31104 162.825C7.82353 161.362 7.33604 159.412 7.33604 157.706V156.731C7.33604 155.269 7.57979 153.562 8.79854 152.1C10.0173 150.637 11.4798 150.15 13.186 150.15C14.8924 150.15 16.5985 150.637 17.8174 152.344C19.036 154.05 18.7924 156 18.7924 157.462V160.875H14.8922V156.975C14.8922 155.512 14.6485 154.781 14.4049 154.537C14.161 153.806 13.4298 153.562 12.9423 153.562C12.211 153.562 11.9673 153.806 11.4798 154.294C11.236 154.781 10.9923 155.512 10.9923 156V156.487C10.9923 158.437 11.236 160.387 12.6985 162.581L15.8674 167.456C17.086 169.406 18.5485 172.087 18.5485 176.719V177.206C18.5485 178.912 18.5485 181.106 17.3299 182.812C16.111 185.006 14.6485 185.25 12.9423 185.25C11.7235 185.25 10.0173 185.006 8.79854 183.787C7.09229 182.081 7.09229 179.644 7.09229 177.694V173.306H10.5048Z" fill="#060606"/>
<path d="M58.5235 150.395H64.3735C67.5423 150.395 68.761 151.856 69.2485 152.589C69.736 153.075 70.2235 154.539 70.2235 158.195V177.939C70.2235 179.4 69.9798 181.35 68.761 183.056C67.5423 184.52 65.5923 185.006 64.3735 185.006H58.2798V150.395H58.5235ZM63.886 181.106C64.6173 181.106 65.5923 181.106 66.0798 179.889C66.3235 179.645 66.3235 178.914 66.3235 177.206V157.95C66.3235 156.975 66.3235 155.756 65.836 155.025C65.3485 154.05 64.1298 154.05 63.6423 154.05H61.936V181.106H63.886Z" fill="#060606"/>
<path d="M82.6548 179.888C82.6548 181.838 82.1673 183.056 81.6798 183.788C81.1923 184.519 79.9735 185.494 78.0235 185.494C76.0735 185.494 74.8548 184.763 74.1235 183.788C72.9048 182.325 72.9048 180.619 72.9048 179.156V165.263C72.9048 163.8 72.9048 162.094 74.1235 160.631C74.8548 159.656 76.3173 159.169 77.7798 159.169C79.2423 159.169 80.7048 159.9 81.436 160.631C82.6548 162.094 82.6548 163.556 82.6548 165.263V172.819H76.3173V179.644C76.3173 180.863 76.561 181.35 76.561 181.594C76.8048 182.081 77.2923 182.325 77.7798 182.325C78.511 182.325 78.7548 182.081 78.9985 181.594C79.2423 181.35 79.2423 180.863 79.2423 179.644V175.5H82.4111V179.888H82.6548ZM79.486 164.531C79.486 164.044 79.486 163.313 79.2423 162.825C78.9985 162.581 78.7548 162.338 78.0235 162.338C77.2923 162.338 77.0485 162.581 76.8048 162.825C76.561 163.313 76.561 163.8 76.561 164.531V170.138H79.486V164.531Z" fill="#060606"/>
<path d="M87.2861 184.762L84.3611 159.656H87.7736L89.2361 176.231V178.425H89.4799V176.231L90.9424 159.656H94.3549L91.1861 184.762H87.2861Z" fill="#060606"/>
<path d="M105.567 179.888C105.567 181.838 105.08 183.056 104.592 183.788C104.105 184.275 102.886 185.25 100.936 185.25C98.986 185.25 97.7674 184.519 97.036 183.544C96.061 182.325 96.061 180.375 96.061 179.156V165.263C96.061 163.8 96.061 162.094 97.2797 160.631C98.011 159.656 99.4735 159.169 100.936 159.169C102.399 159.169 103.861 159.9 104.592 160.631C105.811 162.094 105.811 163.556 105.811 165.263V172.819H99.4735V179.644C99.4735 180.863 99.7172 181.35 99.7172 181.594C99.961 182.081 100.449 182.325 100.936 182.325C101.667 182.325 101.911 182.081 102.155 181.594C102.399 181.35 102.399 180.863 102.399 179.644V175.5H105.567V179.888ZM102.155 164.531C102.155 164.044 102.155 163.313 101.911 162.825C101.667 162.581 101.424 162.338 100.692 162.338C99.961 162.338 99.7174 162.581 99.4735 162.825C99.2299 163.313 99.2297 163.8 99.2297 164.531V170.138H102.155V164.531Z" fill="#060606"/>
<path d="M124.336 178.669C124.336 180.131 124.336 182.081 123.605 183.544C122.873 184.275 121.655 185.25 119.217 185.25C117.023 185.25 115.805 184.275 115.073 183.3C114.098 181.837 114.342 180.131 114.342 178.425V165.019C114.342 164.044 114.342 162.337 115.073 160.875C115.561 160.144 116.78 158.925 119.217 158.925C121.655 158.925 122.873 160.144 123.361 160.875C124.336 162.337 124.092 163.8 124.092 165.019V178.669H124.336ZM120.68 163.069C120.192 162.337 119.705 162.337 119.217 162.337C118.73 162.337 118.242 162.337 117.755 163.069C117.511 163.556 117.511 164.044 117.511 164.531V179.887C117.511 180.375 117.511 180.862 117.755 181.35C118.242 182.081 118.73 182.081 119.217 182.081C119.705 182.081 120.192 182.081 120.68 181.35C120.923 180.862 120.923 180.375 120.923 179.887V164.531C120.923 164.044 120.923 163.556 120.68 163.069Z" fill="#060606"/>
<path d="M127.017 192.075V159.656H129.942L130.43 160.875C130.674 160.387 130.917 160.144 131.405 159.9C131.892 159.412 132.624 159.412 133.355 159.412C135.304 159.412 136.037 160.631 136.524 161.606C136.768 162.337 137.012 163.312 137.012 165.019V180.131C137.012 181.594 137.012 183.3 136.279 184.519C135.549 185.981 134.574 186.225 133.599 186.225C132.624 186.225 131.892 185.981 131.405 185.494C130.917 185.006 130.674 184.762 130.674 184.275V192.562H127.017V192.075ZM133.111 162.825C132.867 162.337 132.624 162.094 132.136 162.094C131.649 162.094 131.161 162.337 130.674 163.069C130.43 163.556 130.43 164.287 130.43 165.019V179.156C130.43 179.644 130.43 180.619 130.674 181.35C130.917 181.837 131.161 182.812 132.136 182.812C132.867 182.812 133.111 182.569 133.111 182.081C133.111 181.837 133.355 181.35 133.355 179.644V164.775C133.355 164.044 133.355 163.312 133.111 162.825Z" fill="#060606"/>
<path d="M152.368 184.762V165.994C152.368 164.044 152.368 163.8 152.123 163.556C151.879 162.825 151.148 162.825 150.904 162.825C150.418 162.825 149.929 163.069 149.687 163.556C149.443 164.044 149.443 164.531 149.443 165.75V184.762H146.029V165.994C146.029 165.506 146.029 164.044 145.787 163.8C145.543 163.069 145.054 162.825 144.568 162.825C144.079 162.825 143.593 163.069 143.348 163.556C143.348 163.8 142.862 164.287 142.862 165.506V185.006H139.448V159.656H142.618L143.104 160.875C143.348 160.631 143.593 160.144 144.079 159.656C144.812 159.169 145.543 158.925 146.029 158.925C146.762 158.925 147.493 159.169 147.979 159.656C148.468 160.144 148.954 160.631 148.954 160.875C149.443 160.387 149.687 159.9 150.418 159.656C151.148 159.169 151.637 159.169 152.612 159.169C153.587 159.169 154.562 159.656 155.048 160.387C155.779 161.362 155.779 162.581 155.779 163.556V184.762H152.368Z" fill="#060606"/>
<path d="M167.968 179.888C167.968 181.838 167.479 183.056 166.993 183.788C166.504 184.519 165.287 185.494 163.337 185.494C161.387 185.494 160.168 184.763 159.437 183.788C158.218 182.325 158.218 180.619 158.218 179.156V165.263C158.218 163.8 158.218 162.094 159.437 160.631C160.168 159.656 161.629 159.169 163.093 159.169C164.554 159.169 166.018 159.9 166.748 160.631C167.968 162.094 167.968 163.556 167.968 165.263V172.819H161.629V179.644C161.629 180.863 161.873 181.35 161.873 181.594C162.118 182.081 162.604 182.325 163.093 182.325C163.823 182.325 164.068 182.081 164.312 181.594C164.554 181.35 164.554 180.863 164.554 179.644V175.5H167.723V179.888H167.968ZM164.554 164.531C164.554 164.044 164.554 163.313 164.312 162.825C164.068 162.581 163.823 162.338 163.093 162.338C162.362 162.338 162.118 162.581 161.873 162.825C161.629 163.313 161.629 163.8 161.629 164.531V170.138H164.554V164.531Z" fill="#060606"/>
<path d="M177.229 184.763V165.506C177.229 164.044 176.985 163.556 176.985 163.313C176.985 163.069 176.498 162.338 175.768 162.338C175.035 162.338 174.548 162.825 174.304 163.313C174.304 163.556 174.06 164.044 174.06 165.019V184.763H170.648V159.656H173.818V161.363C174.06 160.875 174.548 160.388 175.035 159.9C175.768 159.413 176.498 159.169 177.473 159.169C178.935 159.169 179.668 159.9 179.91 160.388C180.398 161.119 180.643 162.338 180.643 165.019V184.763H177.229Z" fill="#060606"/>
<path d="M27.8111 161.606V179.887C27.8111 180.619 27.8111 181.106 27.5672 181.35C27.3236 181.837 26.8361 182.081 26.1047 182.081C25.6172 182.081 25.1297 181.837 24.8861 181.106C24.6422 180.619 24.6422 179.156 24.6422 178.669V159.656L21.2297 161.606V179.4C21.2297 181.35 21.4736 182.812 22.2047 184.031C22.9361 185.006 23.6672 185.25 24.6422 185.25C25.3736 185.25 26.1047 185.006 26.5922 184.519C26.8361 184.275 27.3236 184.031 27.8111 183.3V184.762H30.9797V159.656L27.8111 161.606Z" fill="#060606"/>
<path d="M108.249 152.345V184.764H111.661V150.395L108.249 152.345Z" fill="#060606"/>
<path d="M187.954 162.581H189.904V159.656H187.954V150.395L184.543 152.345V159.656H182.593V162.581H184.543V180.864C184.543 181.35 184.543 182.325 184.787 182.814C185.029 183.3 185.273 184.031 186.004 184.275C186.737 184.764 187.468 184.764 188.198 184.764H189.904V181.839H188.687C187.954 181.839 187.954 180.62 187.954 180.131V162.581Z" fill="#060606"/>
<path d="M143.104 112.369V108.957C143.104 108.469 142.862 108.225 142.618 107.738L140.668 105.3L140.912 105.544L129.942 90.9191V53.6253C129.942 53.1378 129.699 52.8941 129.455 52.4066L105.324 20.2316C105.324 20.2316 105.324 19.9878 105.08 19.9878C105.08 19.9878 105.08 19.9878 104.836 19.7441H104.592H104.349H104.105H103.861H103.617C103.617 19.7441 103.374 19.7441 103.374 19.9878C103.374 19.9878 103.13 19.9878 103.13 20.2316L86.7986 41.6816C86.5548 41.9253 86.3111 42.4128 86.3111 42.9003V50.4566L78.9986 41.4378C78.9986 41.4378 78.9986 41.4378 78.7548 41.1941L78.5111 40.9503H78.2673H78.0236H77.7798H77.5361H77.2923C77.2923 40.9503 77.0486 40.9503 77.0486 41.1941C77.0486 41.1941 77.0486 41.4378 76.8048 41.4378L66.5673 55.0878C66.3236 55.3316 66.0798 55.8191 66.0798 56.3066V80.4378V81.1691V82.6316L59.2548 91.4066C59.0112 91.6503 58.7673 92.1378 58.7673 92.6253V136.012L62.4236 133.82V93.1128L76.0736 75.0753V136.012L79.7298 133.82V48.0191L95.8173 69.2253V135.77L99.4736 133.575V68.7378C99.4736 68.2503 99.2298 68.0066 98.9861 67.5191L89.4798 55.0878V43.1441L102.155 26.5691V135.77L105.811 133.575V26.8128L126.53 54.3566V91.8941V136.012L130.186 133.82V97.2566L136.524 105.788L139.449 109.688V112.613V136.256L143.104 133.575V114.563V112.369ZM75.8298 68.9816L69.2486 77.5128V56.7941L75.8298 48.0191V68.9816Z" fill="#060606"/>
<path d="M145.543 26.5685C132.624 11.4561 113.855 2.9248 94.1111 2.9248C83.8736 2.9248 73.8798 5.11855 64.3736 9.7498C48.2861 17.7935 36.0986 31.4435 30.2486 48.506C24.3986 65.5685 25.6173 83.8499 33.4173 100.181C37.8048 108.956 43.8986 116.756 51.4548 122.85C51.4548 122.85 51.4548 122.85 51.6986 122.85H51.9423V122.606C48.2861 118.462 45.1173 113.587 42.6798 108.469C34.8798 92.381 33.6611 74.0999 39.5111 57.281C45.3611 40.4624 57.3048 26.5685 73.3923 18.7685C82.6548 14.1374 92.6486 11.9436 102.886 11.9436C118.242 11.9436 133.355 17.306 145.299 27.056C145.299 27.056 145.299 27.056 145.543 27.056C145.543 26.8124 145.543 26.8124 145.543 26.5685Z" fill="#060606"/>
</g>
</svg>
