<svg width="176" height="120" viewBox="0 0 176 120" fill="none" xmlns="http://www.w3.org/2000/svg">
<g opacity="0.7">
<path fill-rule="evenodd" clip-rule="evenodd" d="M140.964 1.64709L137.099 1.30975C134.421 1.07715 131.76 1.9117 129.699 3.63055C127.638 5.34939 126.345 7.81232 126.103 10.4797L119.975 82.2315C119.75 84.9021 120.593 87.5535 122.321 89.6073C124.049 91.6611 126.522 92.9505 129.2 93.1951L133.054 93.538C135.732 93.7706 138.393 92.9352 140.455 91.2153C142.516 89.4949 143.809 87.0308 144.05 84.3624L150.172 12.6105C150.397 9.94255 149.557 7.2936 147.832 5.24031C146.108 3.18701 143.639 1.89558 140.964 1.64709Z" fill="#222222"/>
<path fill-rule="evenodd" clip-rule="evenodd" d="M109.696 2.09704L105.842 1.75408C103.164 1.52148 100.503 2.35604 98.4424 4.07488C96.3813 5.79372 95.0877 8.25663 94.8457 10.924L88.7918 82.8895C88.3178 88.4275 92.5267 92.4754 98.0841 92.9647L101.938 93.3076C107.495 93.7966 112.376 90.5582 112.849 85.0202L118.903 13.0549C119.137 10.3858 118.298 7.73347 116.572 5.67937C114.846 3.62525 112.373 2.33698 109.696 2.09704Z" fill="#222222"/>
<path fill-rule="evenodd" clip-rule="evenodd" d="M49.1098 1.11882C42.8189 -0.134949 35.8961 0.292346 33.4926 7.30338L0.594004 104.086C-3.95347 117.501 18.9588 125.006 23.461 111.844L56.3598 15.0846C58.1541 9.82218 54.5825 2.16457 49.1098 1.11882Z" fill="#222222"/>
<path fill-rule="evenodd" clip-rule="evenodd" d="M78.9139 1.00109L75.0377 0.663752C72.3595 0.429583 69.6971 1.26342 67.6349 2.98242C65.5722 4.70142 64.2779 7.16525 64.0359 9.8337L57.6661 82.9236C57.4403 85.5953 58.2844 88.2473 60.0136 90.3011C61.7428 92.355 64.217 93.6443 66.8964 93.887L70.7498 94.23C73.428 94.4628 76.09 93.6274 78.1511 91.9075C80.2126 90.1871 81.5053 87.7227 81.7461 85.0543L87.7042 12.5605C88.178 7.02257 84.4656 1.49585 78.9139 1.00109Z" fill="#222222"/>
<path fill-rule="evenodd" clip-rule="evenodd" d="M36.6293 109.731H34.6546L35.6363 107.055L36.6293 109.731ZM39.3149 112.587L36.4204 105.368H34.8802L32.0593 112.587H33.6107L34.2088 110.951H37.1031L37.7295 112.587H39.3149ZM43.4391 109.934H45.1317V110.85C44.654 111.24 44.057 111.457 43.4391 111.463C43.1404 111.482 42.8416 111.426 42.5691 111.303C42.2965 111.18 42.0587 110.991 41.8764 110.755C41.4934 110.201 41.3067 109.536 41.3459 108.865C41.3459 107.269 42.0399 106.47 43.428 106.47C43.79 106.431 44.1545 106.523 44.4539 106.729C44.7536 106.936 44.9682 107.243 45.0585 107.595L46.5085 107.325C46.2 105.915 45.1732 105.209 43.428 105.205C42.4933 105.181 41.5842 105.511 40.8834 106.128C40.5168 106.487 40.2334 106.921 40.053 107.401C39.8726 107.881 39.7999 108.394 39.8395 108.905C39.8003 109.892 40.1345 110.857 40.7762 111.609C41.127 111.973 41.5541 112.256 42.0269 112.438C42.4998 112.62 43.007 112.696 43.5125 112.661C44.6503 112.698 45.7586 112.295 46.6043 111.536V108.663H43.4391V109.878V109.934ZM47.9528 112.587H53.4593V111.373H49.4085V109.405H53.0307V108.191H49.4085V106.594H53.3127V105.368H47.9528V112.587ZM54.7233 112.587H56.0829V107.882L58.9998 112.587H60.4611V105.368H59.1071V110.192L56.1449 105.374H54.7233V112.593V112.587ZM66.6336 109.934C66.3967 110.951 65.8606 111.463 65.0255 111.463C63.8408 111.463 63.2484 110.621 63.2484 108.939C63.2484 107.256 63.8503 106.441 65.0538 106.493C65.4155 106.462 65.7749 106.57 66.0593 106.795C66.3434 107.019 66.5308 107.343 66.5829 107.702L68.027 107.364C67.8878 106.72 67.5166 106.149 66.9828 105.76C66.4497 105.37 65.7911 105.189 65.1327 105.25C64.6656 105.225 64.199 105.305 63.7673 105.484C63.3357 105.663 62.9499 105.937 62.6391 106.285C62.0122 107.063 61.6952 108.044 61.7475 109.04C61.7306 109.956 62.0115 110.853 62.5488 111.598C62.9263 112.034 63.4147 112.36 63.9633 112.541C64.5116 112.723 65.0989 112.753 65.6631 112.629C66.2274 112.504 66.7475 112.229 67.1674 111.834C67.5877 111.439 67.8922 110.937 68.0497 110.384L66.6336 109.934ZM71.198 112.587H72.6535V109.563L75.3111 105.368H73.6185L71.9539 108.23L70.2613 105.368H68.5687L71.2205 109.546V112.587H71.198ZM78.7639 112.587H80.1124V106.909L81.5399 112.587H82.9333L84.3721 106.909V112.587H85.7544V105.368H83.5597L82.2619 110.294L80.9531 105.368H78.7695V112.587H78.7639ZM87.1987 112.587H92.7054V111.373H88.66V109.405H92.2935V108.191H88.66V106.594H92.5248V105.368H87.1591V112.587H87.1987ZM95.4022 106.594H96.0624C96.552 106.569 97.0429 106.619 97.5179 106.74C97.8301 106.861 98.0811 107.1 98.2175 107.404C98.4326 107.901 98.5274 108.443 98.494 108.984C98.494 109.934 98.3474 110.569 98.0484 110.889C97.8356 111.072 97.5881 111.21 97.3199 111.293C97.0524 111.376 96.7699 111.403 96.4911 111.373H95.4022V106.594ZM93.9409 105.368V112.587H96.6886C98.9002 112.587 100.006 111.408 100.006 109.051C100.03 108.299 99.8821 107.55 99.5718 106.864C99.3518 106.346 98.9504 105.924 98.4433 105.678C97.8611 105.453 97.2393 105.348 96.6152 105.368H93.9409ZM101.191 112.587H102.658V105.368H101.191V112.587ZM107.877 109.731H105.902L106.884 107.055L107.877 109.731ZM110.568 112.587L107.668 105.368H106.128L103.307 112.587H104.858L105.456 110.951H108.322L108.949 112.587H110.568ZM114.061 112.587H115.415V106.909L116.842 112.587H118.253L119.691 106.909V112.587H121.045V105.368H118.856L117.553 110.294L116.221 105.368H114.038V112.587H114.061ZM126.332 109.731H124.357L125.339 107.055L126.332 109.731ZM129.023 112.587L126.123 105.368H124.583L121.762 112.587H123.313L123.911 110.951H126.806L127.432 112.587H129.023ZM131.28 108.427V106.594H132.408C132.915 106.551 133.427 106.612 133.909 106.774C134.014 106.868 134.096 106.984 134.15 107.114C134.205 107.244 134.23 107.383 134.223 107.523C134.217 107.664 134.179 107.801 134.113 107.925C134.047 108.049 133.954 108.157 133.841 108.241C133.361 108.398 132.856 108.461 132.352 108.427H131.28ZM129.824 112.587H131.28V109.568H131.573C131.885 109.547 132.198 109.605 132.482 109.737C132.692 109.867 132.871 110.042 133.006 110.249L134.575 112.587H136.324L135.404 111.176C135.023 110.463 134.47 109.854 133.796 109.405C135.071 109.221 135.709 108.551 135.709 107.392C135.747 107.088 135.701 106.779 135.576 106.498C135.451 106.218 135.251 105.977 134.998 105.801C134.338 105.471 133.602 105.321 132.865 105.368H129.762V112.587H129.824ZM137.159 112.587H138.615V110.406L139.805 109.203L141.791 112.576H143.681L140.809 108.174L143.534 105.363H141.498L138.547 108.567V105.363H137.097V112.582L137.159 112.587ZM144.431 112.587H149.932V111.373H145.893V109.405H149.526V108.191H145.893V106.594H149.797V105.368H144.431V112.587ZM152.804 112.587H154.265V106.594H156.404V105.368H150.593V106.594H152.737V112.587H152.804ZM157.318 112.587H158.785V105.368H157.318V112.587ZM160.178 112.587H161.544V107.882L164.461 112.587H165.871V105.368H164.511V110.192L161.549 105.374H160.128V112.593L160.178 112.587ZM170.825 109.934H172.518V110.85C172.039 111.239 171.442 111.455 170.825 111.463C170.532 111.479 170.239 111.425 169.971 111.306C169.704 111.186 169.468 111.005 169.285 110.777C168.901 110.224 168.715 109.559 168.754 108.888C168.754 107.291 169.45 106.493 170.842 106.493C171.204 106.454 171.567 106.547 171.867 106.753C172.166 106.959 172.381 107.266 172.472 107.617L173.922 107.347C173.614 105.938 172.587 105.232 170.842 105.228C169.905 105.204 168.995 105.533 168.292 106.15C167.927 106.51 167.645 106.945 167.466 107.425C167.287 107.905 167.214 108.417 167.253 108.927C167.214 109.914 167.549 110.879 168.19 111.632C168.54 111.996 168.966 112.279 169.438 112.46C169.91 112.642 170.416 112.719 170.921 112.683C172.06 112.722 173.171 112.319 174.018 111.558V108.686H170.864L170.825 109.934Z" fill="black"/>
<path fill-rule="evenodd" clip-rule="evenodd" d="M80.7615 81.2031C85.9579 94.854 62.5321 102.512 57.8945 88.9618L33.3798 15.0848C32.2515 11.7114 32.8156 7.26983 34.9823 4.40245C39.8964 -2.14753 53.1608 -1.69213 56.4163 7.82081L80.7615 81.2031Z" fill="black"/>
<path fill-rule="evenodd" clip-rule="evenodd" d="M111.862 81.203C117.046 94.8989 93.4967 102.123 88.9943 88.9617L64.4798 15.0846C63.5973 12.4422 63.6633 9.57659 64.666 6.97725C67.7351 -2.01844 83.8882 -2.79432 87.5217 7.8206L111.862 81.203Z" fill="black"/>
<path fill-rule="evenodd" clip-rule="evenodd" d="M142.867 81.203C148.018 94.7526 124.502 102.123 120 88.9617L95.485 15.0846C94.6027 12.4422 94.6687 9.57659 95.6712 6.97725C98.7406 -2.01844 114.894 -2.79432 118.522 7.8206L142.867 81.203Z" fill="black"/>
<path fill-rule="evenodd" clip-rule="evenodd" d="M174.058 81.203C178.616 94.6347 155.693 102.123 151.19 88.9617L126.676 15.0846C125.793 12.4422 125.859 9.57659 126.862 6.97725C129.931 -2.01844 146.085 -2.79432 149.718 7.8206L174.058 81.203Z" fill="black"/>
</g>
</svg>
