<svg width="231" height="155" viewBox="0 0 231 155" fill="none" xmlns="http://www.w3.org/2000/svg">
<g clip-path="url(#clip0_753_387)">
<path d="M90.0845 50.645C90.2114 52.1171 90.4746 53.6986 90.7378 55.3625C91.0423 57.1008 91.4361 58.8216 91.917 60.5189C92.0803 61.2229 92.3072 61.9085 92.5248 62.6032L95.2464 55.9568L102.667 59.102C102.667 59.0196 102.667 58.9281 102.594 58.8459C102.286 57.8492 102.077 56.8435 101.832 55.8471C101.588 54.8507 101.424 53.8632 101.297 52.885C101.04 51.005 100.88 49.1133 100.816 47.2167C100.816 46.1015 100.816 45.0317 100.816 44.0078L97.7775 51.3217L89.7852 47.9389C89.8849 48.7708 89.9665 49.6853 90.0845 50.645Z" fill="#060606"/>
<path d="M225.698 63.6186V63.3443L224.22 62.229L223.43 61.5984C223.204 61.4245 222.987 61.2782 222.768 61.1229L205.087 47.6014V47.4002H204.852L197.286 41.6313V33.7598L186.082 23.9593L192.904 20.211L184.893 16.3529C180.086 14.0399 174.788 12.632 167.721 11.7818C165.789 11.5532 163.503 11.3887 160.899 11.2973C156.65 7.62837 151.929 4.55328 146.865 2.15494L144.398 0.975586L142.23 2.63948C140.187 4.22696 138.591 6.32621 137.603 8.72825C132.885 7.18583 128.02 6.14406 123.088 5.61986L119.623 5.32732L118.444 8.62767C117.377 11.5598 116.549 14.5745 115.967 17.642C115.858 18.5562 115.786 19.3608 115.74 20.1744L112.012 21.9023C111.159 21.5036 110.23 21.2947 109.29 21.2898H108.746L99.3296 4.83364L94.6211 24.7456L81.9663 11.3338V34.2626C80.7143 35.0948 79.9796 35.634 79.8616 35.7163L78.5188 36.7038L78.1287 38.3312C78.0654 38.6142 78.0111 38.9162 77.9567 39.2453C69.7103 43.8164 61.3371 48.8083 53.9165 53.8729L42.35 61.7718L53.5719 65.4927C45.6977 70.6581 35.3194 78.0178 26.9917 86.2275H5.07443L1.69067 99.941L14.1733 112.393L6.83434 141.492H36.2178L38.1407 134.252L45.398 141.492H85.7673L93.9318 132.982L91.6638 141.492H125.32L133.938 135.953L139.554 141.492H155.339L163.966 135.916L169.617 141.484H198.864L209.823 100.06L199.29 89.6558C200.198 89.6558 201.16 89.7292 202.212 89.7292C207.7 89.7292 213.225 89.1348 213.451 89.1075L215.184 88.9244L224.256 78.74L227.884 74.9734L228.157 74.4981C228.476 73.9253 228.711 73.3096 228.855 72.6695L229.037 71.1335C229.028 68.921 228.239 66.279 225.698 63.6186ZM224.174 72.1666L220.909 75.6041L212.971 84.5179C212.971 84.5179 202.992 85.5965 196.878 84.8288L194.029 87.7086C188.652 86.2581 183.167 85.2523 177.627 84.7009C171.736 84.4264 165.833 84.5303 159.955 85.0115C158.934 86.8628 158.072 88.7991 157.379 90.7986H194.029L204.716 101.459L195.317 136.922H171.413L164.473 130.101L153.924 136.922H141.313L134.447 130.147L123.904 136.922H97.5243L102.786 116.992L83.826 136.922H47.2578L35.7821 125.466L32.734 136.922H12.6674L19.2081 110.958L6.71639 98.4967L8.62147 90.7986H28.8696C40.2998 79.0598 56.9918 68.6561 64.1314 64.1855L52.5377 60.3366L56.4564 57.6579C64.4216 52.1724 73.4662 46.8882 82.2475 42.1159C82.2566 41.1944 82.3538 40.2761 82.5377 39.3731C82.5377 39.3731 83.9801 38.3126 86.502 36.7219V22.7983L95.0568 31.9406C95.9639 31.4652 96.9346 31.0263 97.9233 30.5235L101.099 17.1666L106.632 26.8208C107.476 26.51 108.338 26.2084 109.209 25.9066C109.653 25.8875 110.088 26.0333 110.433 26.3164C110.777 26.5996 111.007 27.0002 111.077 27.4426C115.141 25.5136 118.335 24.0508 120.276 23.173C120.215 21.5394 120.288 19.9035 120.494 18.282C121.036 15.5247 121.788 12.8137 122.743 10.1727C128.929 10.8546 134.992 12.3928 140.76 14.744C140.834 13.1143 141.246 11.5185 141.972 10.0601C142.697 8.60163 143.718 7.31313 144.97 6.27813C144.97 6.27813 153.787 10.3647 159.012 15.8228C161.906 15.8867 164.754 16.0421 167.176 16.3256C174.19 17.1666 178.852 18.5196 182.916 20.4762L178.163 23.0908L192.732 35.89V43.9445L219.947 64.7338L220.663 65.2552L221.18 65.6758L221.344 65.8036C225.708 69.4605 224.174 72.1666 224.174 72.1666Z" fill="#060606"/>
<path d="M211.039 68.0256H214.54L203.845 59.9073L203.382 60.6295C203.129 61.0226 202.811 61.379 202.475 61.7722C202.18 62.181 201.863 62.5716 201.523 62.9424L200.498 64.0578L199.971 64.6065C199.79 64.7892 199.591 64.9537 199.409 65.1185L198.312 66.0876C197.949 66.3984 197.622 66.7094 197.276 67.0016L196.298 67.7238L194.292 69.196L195.861 67.2759L196.615 66.3617C196.878 66.0327 197.114 65.6488 197.377 65.2738L198.175 64.1037C198.302 63.9025 198.447 63.7105 198.574 63.5001L198.919 62.8693L199.618 61.617C199.832 61.2156 200.025 60.8036 200.198 60.3826C200.361 59.9714 200.561 59.5963 200.679 59.2217C200.797 58.8468 200.914 58.4993 201.023 58.1701C201.059 58.0687 201.086 57.9648 201.105 57.8593L199.491 56.6253C199.314 56.9441 199.113 57.2496 198.892 57.5395C198.629 57.9017 198.345 58.2467 198.039 58.5725C197.718 58.8997 197.375 59.2051 197.014 59.4867C196.668 59.76 196.301 60.0045 195.916 60.2181C195.563 60.435 195.197 60.6275 194.819 60.794C194.446 60.9403 194.102 61.1141 193.767 61.2238L192.805 61.5347C192.225 61.7266 191.706 61.7907 191.362 61.8819L190.818 62.0008L191.308 61.7174C191.733 61.4878 192.144 61.2343 192.541 60.9585L193.331 60.4101C193.603 60.2089 193.857 59.962 194.13 59.7245C194.412 59.4857 194.672 59.2227 194.909 58.9382C195.16 58.6689 195.39 58.3815 195.599 58.0789C195.805 57.7867 195.993 57.4814 196.162 57.1645C196.304 56.8667 196.431 56.5615 196.542 56.2503C196.636 55.9509 196.708 55.6455 196.76 55.3363C196.805 55.0828 196.829 54.8257 196.833 54.5682L186.854 46.9619V38.5873L168.71 22.7895C162.209 22.3657 155.686 22.4452 149.197 23.0273L148.081 25.194C148.081 25.194 140.288 19.7086 127.044 16.1797C127.044 16.2711 124.468 25.9527 130.6 32.6359L132.497 34.83C124.958 41.2297 123.225 46.6236 123.225 46.6236C130.799 46.2761 133.494 48.8632 133.494 48.8632C133.494 48.8632 127.616 55.2628 125.846 63.1162C122.645 59.3863 124.177 52.5843 124.177 52.5843L114.752 55.2081C114.752 55.2081 114.752 48.6987 119.623 40.4616C121.057 38.3393 122.62 36.3085 124.304 34.382C122.994 32.8821 122.017 31.1181 121.438 29.2074C118.879 30.3685 114.979 32.1787 110.243 34.4642C110.243 34.4642 110.243 34.4642 110.243 34.5373C110.143 34.9215 110.025 35.5247 109.871 36.2926C109.717 37.0607 109.563 38.0022 109.399 39.0901C109.236 40.178 109.091 41.4124 108.964 42.7471C108.837 44.0821 108.782 45.5632 108.728 47.108C108.695 48.7277 108.746 50.3481 108.882 51.9625C108.882 52.8128 109.046 53.6448 109.136 54.5133C109.227 55.3818 109.372 56.2322 109.563 57.0823C109.9 58.8241 110.355 60.5408 110.923 62.2202C111.205 63.0705 111.549 63.8843 111.831 64.7161C112.112 65.5481 112.538 66.3525 112.974 67.1114C113.409 67.8703 113.781 68.6839 114.262 69.3969L114.951 70.5033C115.178 70.869 115.441 71.207 115.686 71.5545C115.931 71.902 116.176 72.2585 116.421 72.5969L117.219 73.5658C117.482 73.886 117.745 74.1965 117.999 74.48C118.253 74.7634 118.544 75.0744 118.816 75.3944C119.868 76.601 121.02 77.5793 122.045 78.5759L123.615 79.8832L124.349 80.4958L125.067 81.0353L126.39 82.0134C126.79 82.3333 127.18 82.5893 127.543 82.8268C128.958 83.7414 129.765 84.3446 129.765 84.3446C129.765 84.3446 128.859 84.116 127.144 83.6498C126.3 83.4486 125.329 83.0466 124.186 82.635L123.279 82.2966C122.979 82.1781 122.68 82.0316 122.372 81.8853L120.421 80.9712C118.973 80.1989 117.576 79.3316 116.239 78.3747C115.877 78.1187 115.505 77.8719 115.142 77.5977L114.09 76.6833L113.01 75.7691L111.976 74.7546C111.631 74.4163 111.259 74.0779 110.923 73.7122L109.944 72.5695C109.271 71.7975 108.641 70.9889 108.057 70.1465C107.739 69.7263 107.458 69.2872 107.15 68.8484L106.315 67.5045C105.834 66.5904 105.335 65.6762 104.891 64.7618L101.843 72.0755L95.3292 69.3331C95.6102 69.8908 95.8827 70.4393 96.2363 70.9787C96.717 71.8198 97.2615 72.6242 97.7784 73.438C98.2957 74.2516 98.8671 75.0377 99.4929 75.7691C100.119 76.5006 100.681 77.2687 101.307 77.936L102.269 78.978C102.587 79.3163 102.94 79.6273 103.267 79.9473L104.274 80.9071L105.317 81.7663L106.36 82.6168C106.705 82.8909 107.059 83.1378 107.413 83.4031C108.782 84.4728 110.225 85.2313 111.522 86.1457L113.463 87.2062L114.371 87.7091L115.278 88.1386L116.902 88.9067C117.352 89.1401 117.816 89.3477 118.29 89.5285C120.004 90.2321 121.011 90.6894 121.011 90.6894C121.011 90.6894 119.95 90.6894 118.063 90.4974C116.931 90.3992 115.805 90.2437 114.688 90.0313L113.672 89.9123L112.574 89.6564L110.298 89.0712C108.591 88.5449 106.919 87.9129 105.29 87.1789C104.854 86.9777 104.383 86.7946 103.956 86.5753L102.65 85.8531L101.307 85.0852L99.9831 84.2257C99.5473 83.924 99.0756 83.6498 98.6495 83.3115L97.3431 82.3426C96.4673 81.6567 95.6286 80.9239 94.8303 80.1482C94.4085 79.7693 94.0089 79.3663 93.6328 78.9416L92.4625 77.6799C91.7367 76.7659 90.9928 75.9155 90.3215 74.9828C89.6501 74.0504 88.9699 73.0997 88.3893 72.1122C88.0988 71.6186 87.7815 71.1433 87.4822 70.6405L86.6836 69.1319C86.1486 68.1262 85.7221 67.0932 85.2504 66.0876C84.7787 65.0818 84.4068 64.0488 84.0713 63.0246C83.3989 61.0742 82.8354 59.0872 82.3839 57.0733C81.9755 55.1532 81.6581 53.3249 81.4765 51.5878C81.3768 50.8383 81.3133 50.1249 81.2589 49.4394C76.1877 52.3282 71.035 55.3451 66.1908 58.4354L79.1178 62.8601C79.1178 62.8601 60.0674 74.7453 47.104 90.799H145.178C146.038 89.0624 147.101 87.4356 148.344 85.9539C140.633 86.6942 134.737 87.435 134.737 87.435L145.161 74.3888L143.98 80.5139C146.854 79.9024 149.759 79.4445 152.681 79.1426C158.218 78.5192 163.794 78.2931 169.363 78.4663C168.696 77.0787 168.384 75.545 168.456 74.0045C166.877 74.6812 165.363 75.4856 163.983 76.2445C166.524 72.7432 169.363 69.5614 173.763 68.6291C180.232 67.2669 184.278 72.222 189.185 75.367C191.17 76.5955 193.305 77.5605 195.535 78.2376C200.389 79.7002 210.34 78.457 210.34 78.457L215.466 72.7066C213.683 73.4909 211.775 73.9434 209.832 74.0412C210.483 72.095 210.889 70.0738 211.039 68.0256ZM135.227 32.6084C130.092 27.9276 130.69 20.7234 130.69 20.7234C134.646 21.1896 143.327 25.9985 144.734 26.7939C141.41 28.4625 138.229 30.4073 135.227 32.6084ZM188.749 54.7419C188.417 54.7337 188.086 54.6906 187.761 54.6141C187.522 54.5665 187.288 54.4964 187.063 54.4035C186.79 54.3149 186.525 54.2017 186.273 54.0653C185.666 53.7566 185.092 53.3858 184.559 52.9592C184.096 52.5935 183.651 52.1729 183.189 51.7431C182.49 51.8072 181.801 51.8527 181.157 51.8527C180.453 51.8527 179.749 51.8037 179.052 51.7068C178.915 52.1547 178.788 52.6208 178.68 53.0048C178.528 53.5552 178.407 54.1137 178.317 54.6778C178.274 54.9261 178.245 55.1761 178.226 55.4275C178.209 55.6589 178.209 55.891 178.226 56.1225C178.202 56.5121 178.202 56.9031 178.226 57.2927C178.226 57.6218 178.317 57.8867 178.345 58.0697C178.372 58.2524 178.345 58.3621 178.345 58.3621L178.136 58.1612C177.938 57.9699 177.752 57.7652 177.582 57.5484C177.312 57.1955 177.085 56.8119 176.902 56.4056C176.658 55.8777 176.479 55.3222 176.366 54.7512C176.233 54.0799 176.166 53.397 176.167 52.7124C176.17 52.1349 176.203 51.5582 176.267 50.9842C175.226 50.5506 174.295 49.8849 173.546 49.037C172.158 47.3621 171.477 45.2057 171.649 43.0306H171.459C171.124 42.9575 170.806 42.8934 170.488 42.8478C169.863 42.7382 169.264 42.6559 168.729 42.5918L167.314 42.418L166.025 42.2717C166.366 41.9888 166.731 41.735 167.114 41.5131C169.616 40.0231 172.545 39.4301 175.423 39.8309C175.913 39.8949 176.403 40.0502 176.911 40.1692L177.682 40.4526C177.682 40.3245 177.682 40.1966 177.682 40.0684C177.682 39.4377 177.682 38.8252 177.682 38.2402C177.682 37.1062 177.609 36.1373 177.601 35.4974C177.592 34.8574 177.601 34.4001 177.601 34.4001L177.783 34.6195C177.882 34.7752 178.072 34.9945 178.254 35.2962C178.487 35.6457 178.699 36.0088 178.889 36.384C179.146 36.8671 179.376 37.3649 179.578 37.8743C179.696 38.1578 179.805 38.4502 179.914 38.7885L180.203 39.7576C180.398 40.4692 180.543 41.193 180.64 41.9244C180.664 42.0664 180.679 42.2101 180.685 42.3539H180.73L180.775 42.3998L180.839 42.4547L181.075 42.6922L181.538 43.1769L182.037 43.7346C182.358 44.0964 182.661 44.4749 182.943 44.868C183.491 45.6014 183.988 46.3711 184.432 47.1721C185.338 48.6713 185.964 50.07 186.545 51.1854C186.681 51.4781 186.827 51.7431 186.971 51.9899C187.117 52.237 187.253 52.4745 187.389 52.6939C187.525 52.9132 187.662 53.1055 187.789 53.2975C187.907 53.4736 188.037 53.6415 188.178 53.8003C188.368 54.0458 188.573 54.278 188.794 54.4951L189.04 54.7512L188.749 54.7419Z" fill="#060606"/>
<path d="M179.981 48.5169H180.08L179.998 48.4238L179.981 48.5169Z" fill="#060606"/>
<path d="M180.019 74.4991C177.569 72.4144 174.757 72.1951 171.954 72.8262C171.954 72.9815 171.863 73.1733 171.818 73.3837L180.59 77.452L173.151 78.3662L173.396 78.6588C177.579 78.9057 181.733 79.3718 185.842 80.0117C183.719 78.3388 182.078 76.2545 180.019 74.4991Z" fill="#060606"/>
<path d="M176.266 44.7477C175.983 44.5739 175.685 44.4276 175.358 44.2543L174.932 44.0713C174.971 45.0759 175.337 46.0397 175.975 46.813C176.224 47.0849 176.511 47.3187 176.827 47.5074C176.928 47.0229 177.036 46.5388 177.117 46.0725L177.226 45.5426L176.991 45.3325C176.76 45.1237 176.518 44.9284 176.266 44.7477Z" fill="#060606"/>
<path d="M90.9957 37.3885L91.6944 40.3324L92.429 43.4135L92.5742 44.0076L95.341 45.1777L96.5022 42.3893L96.0216 41.5393L94.6788 39.1256L93.1004 36.3006L91.6579 33.7134L88.9819 28.9229L90.3064 34.4723L90.9957 37.3885Z" fill="#060606"/>
<path d="M220.571 67.458L220.415 67.8052C220.415 67.8967 220.29 68.1072 220.261 68.1347C220.235 68.162 220.18 68.2806 220.108 68.3904C220.035 68.5004 219.899 68.6281 219.763 68.7653C219.627 68.9024 219.463 69.0213 219.273 69.1403C219.079 69.2707 218.876 69.3868 218.666 69.4874C218.438 69.6029 218.206 69.7037 217.967 69.7891C217.453 69.9837 216.925 70.1363 216.389 70.2463C215.926 70.3468 215.481 70.4202 215.109 70.4657C214.655 70.5295 214.198 70.569 213.74 70.5847C214.184 70.7081 214.635 70.8085 215.091 70.8863C215.472 70.9504 215.907 71.0144 216.389 71.0601H216.533C216.796 71.0601 217.068 71.0601 217.359 71.0601C217.661 71.0795 217.964 71.0795 218.266 71.0601C218.57 71.0479 218.873 71.0173 219.173 70.9685C219.479 70.9255 219.782 70.8614 220.081 70.7767C220.364 70.6928 220.643 70.592 220.915 70.4749C221.178 70.3561 221.414 70.2008 221.641 70.0726C221.752 69.9982 221.859 69.9157 221.958 69.8258L222.285 69.5334C222.409 69.4144 222.527 69.2895 222.638 69.1585L222.893 68.8657L221.758 68.1347L220.571 67.458Z" fill="#060606"/>
<path d="M97.7438 62.0752L96.5825 64.8646L99.3504 66.0349L100.512 63.2455L97.7438 62.0752Z" fill="#060606"/>
<path d="M37.3483 96.4766H12.8818L19.858 103.425H26.952L19.5043 131.244H21.4819L31.0797 104.485L26.1085 131.244H28.3129L35.8331 103.425H44.3152L37.3483 96.4766Z" fill="#060606"/>
<path d="M67.473 96.4766H41.9995L48.2682 102.739L42.4713 124.324L44.1586 126.006L51.8785 104.485L47.2975 129.169L49.4381 131.299H58.0383L60.9138 129.471L69.8497 104.549L65.8037 126.372L68.7158 124.397L74.3854 103.37L67.473 96.4766ZM59.9704 124.287H51.2979L56.9679 103.425H65.586L59.9704 124.287Z" fill="#060606"/>
<path d="M71.8004 96.4766L78.2232 102.876L70.6846 131.217H72.6619L82.2599 104.458L77.2888 131.244H79.5022L83.1853 117.33H94.9059L100.848 111.141L103.234 102.145L97.4643 96.4766H71.8004ZM93.7809 110.382H85.0995L87.0137 103.425H95.6227L93.7809 110.382Z" fill="#060606"/>
<path d="M131.636 96.4766H106.154C106.197 96.5802 108.292 98.6674 112.441 102.739L104.857 131.244H106.726L116.324 104.485L111.352 131.244H122.239C122.761 131.054 123.246 130.773 123.672 130.413L125.059 129.499L134.032 104.476L129.995 126.317C131.712 125.208 132.711 124.577 132.989 124.425C133.352 123.205 135.241 116.197 138.658 103.397L131.636 96.4766ZM124.189 124.287H115.48C117.984 114.859 119.281 110.062 119.372 109.897C119.844 107.704 120.45 105.542 121.186 103.425H129.795L124.189 124.287Z" fill="#060606"/>
<path d="M142.39 102.738C142.39 102.738 140.304 110.719 136.658 124.286C136.911 124.57 137.501 125.2 138.381 126.06L146.119 104.484L141.537 129.168L143.624 131.225H152.16C152.687 131.038 153.176 130.756 153.603 130.394L155.1 129.424L164.044 104.466L160.008 126.224C161.659 125.164 162.62 124.551 162.892 124.396C163.255 123.177 165.146 116.168 168.562 103.369L161.596 96.4844H136.113L142.39 102.738ZM159.744 103.424L154.147 124.286H145.466L151.145 103.424H159.744Z" fill="#060606"/>
<path d="M172.475 102.738L166.733 124.286L168.547 126.115L176.267 104.484L171.676 129.223C172.312 129.862 172.992 130.531 173.718 131.244H184.975L191.208 113.873L187.978 131.244H191.199L196.733 110.38H183.524C183.524 110.545 181.71 117.329 181.71 117.329H186.083L184.268 124.286H175.595L181.265 103.423H198.683C198.078 102.765 195.756 100.446 191.716 96.4658H166.188C166.233 96.5754 172.475 102.738 172.475 102.738Z" fill="#060606"/>
<path d="M1.17798 152.619H2.78367V150.251H5.0153V149.254H2.78367V146.987H6.48493V147.773H7.98177V145.872H1.17798V152.619Z" fill="#060606"/>
<path d="M10.7439 146.987H12.3043V151.504H10.7439V152.619H15.4793V151.504H13.9099V146.987H15.4793V145.872H10.7439V146.987Z" fill="#060606"/>
<path d="M18.1838 149.245L19.8983 152.619H26.2032V149.145H23.3638V149.803H24.7064V151.504H21.0505L19.9256 149.245L21.0505 146.987H24.7064V147.435H26.2032V145.872H19.8983L18.1838 149.245Z" fill="#060606"/>
<path d="M35.8382 149.026H31.7467V145.872H30.1411V152.619H31.7467V150.141H35.8382V152.619H37.4438V145.872H35.8382V149.026Z" fill="#060606"/>
<path d="M40.6338 146.987H43.4281V152.619H45.0337V146.987H47.8278V145.872H40.6338V146.987Z" fill="#060606"/>
<path d="M50.5889 146.987H52.1494V151.504H50.5889V152.619H55.3244V151.504H53.755V146.987H55.3244V145.872H50.5889V146.987Z" fill="#060606"/>
<path d="M64.6159 148.568L60.8873 145.872H58.9187V152.619H60.5244V147.892L64.6159 150.89V152.619H66.2217V145.872H64.6159V148.568Z" fill="#060606"/>
<path d="M69.3931 149.245L71.1076 152.619H77.4035V149.145H74.573V149.803H75.9154V151.504H72.2596L71.1348 149.245L72.2596 146.987H75.9154V147.435H77.4035V145.872H71.1076L69.3931 149.245Z" fill="#060606"/>
<path d="M85.1443 149.245L86.8681 152.619H93.1639V150.608H91.667V151.504H88.0108L86.886 149.245L88.0108 146.987H91.667V147.883H93.1639V145.872H86.8681L85.1443 149.245Z" fill="#060606"/>
<path d="M102.687 149.026H98.5871V145.872H96.9902V152.619H98.5871V150.141H102.687V152.619H104.293V145.872H102.687V149.026Z" fill="#060606"/>
<path d="M110.527 145.872L107.57 152.619H109.33L109.838 151.376H113.956L114.455 152.619H116.224L113.258 145.872H110.527ZM110.137 150.497L111.888 146.924L113.657 150.497H110.137Z" fill="#060606"/>
<path d="M123.861 148.606L121.538 145.872H119.515V152.619H121.12V147.874L123.861 150.543L126.609 147.874V152.619H128.215V145.872H126.191L123.861 148.606Z" fill="#060606"/>
<path d="M138.773 146.604C138.521 146.374 138.228 146.194 137.911 146.074C137.545 145.937 137.157 145.868 136.768 145.872H132.231V152.619H133.837V150.589H136.749C137.14 150.597 137.528 150.528 137.893 150.388C138.211 150.272 138.503 150.095 138.755 149.868C138.987 149.659 139.173 149.404 139.298 149.117C139.43 148.831 139.495 148.519 139.489 148.203C139.493 147.888 139.428 147.576 139.298 147.289C139.168 147.029 138.989 146.797 138.773 146.604ZM137.393 149.199C137.276 149.324 137.135 149.422 136.98 149.489C136.824 149.557 136.656 149.593 136.487 149.593H133.892V146.85H136.487C136.827 146.853 137.154 146.991 137.393 147.235C137.519 147.362 137.618 147.513 137.685 147.68C137.751 147.846 137.786 148.024 137.784 148.203C137.79 148.387 137.759 148.571 137.691 148.743C137.624 148.913 137.523 149.07 137.393 149.199Z" fill="#060606"/>
<path d="M142.299 146.987H143.868V151.504H142.299V152.619H147.034V151.504H145.473V146.987H147.034V145.872H142.299V146.987Z" fill="#060606"/>
<path d="M157.305 146.705C156.899 146.344 156.436 146.057 155.935 145.854C155.133 145.53 154.257 145.438 153.405 145.589C152.555 145.74 151.763 146.125 151.118 146.705C150.739 147.039 150.43 147.445 150.211 147.902C150.005 148.32 149.896 148.779 149.893 149.246C149.897 149.716 150.006 150.178 150.211 150.6C150.432 151.051 150.74 151.456 151.118 151.788C151.517 152.151 151.978 152.439 152.478 152.638C153.595 153.049 154.819 153.049 155.935 152.638C156.438 152.439 156.902 152.151 157.305 151.788C157.676 151.451 157.983 151.048 158.212 150.6C158.415 150.178 158.52 149.715 158.52 149.246C158.521 148.781 158.415 148.32 158.212 147.902C157.989 147.448 157.681 147.041 157.305 146.705ZM156.588 150.27C156.454 150.572 156.266 150.849 156.034 151.084C155.672 151.453 155.207 151.705 154.7 151.804C154.194 151.904 153.669 151.847 153.195 151.641C152.891 151.509 152.614 151.319 152.379 151.084C152.146 150.851 151.961 150.575 151.834 150.27C151.697 149.948 151.626 149.602 151.626 149.251C151.626 148.9 151.697 148.554 151.834 148.232C152.092 147.61 152.579 147.114 153.195 146.851C153.844 146.589 154.569 146.589 155.218 146.851C155.834 147.117 156.324 147.611 156.588 148.232C156.854 148.885 156.854 149.617 156.588 150.27Z" fill="#060606"/>
<path d="M167.516 148.568L163.788 145.872H161.819V152.619H163.425V147.892L167.516 150.89V152.619H169.122V145.872H167.516V148.568Z" fill="#060606"/>
<path d="M172.948 148.852L178.256 150.15V151.622H174.437V151.056H172.948V152.619H179.861V149.584L174.554 148.285V146.877H178.364V147.435H179.861V145.872H172.948V148.852Z" fill="#060606"/>
<path d="M189.38 149.026H185.288V145.872H183.683V152.619H185.288V150.141H189.38V152.619H190.985V145.872H189.38V149.026Z" fill="#060606"/>
<path d="M194.565 146.987H196.134V151.504H194.565V152.619H199.3V151.504H197.74V146.987H199.3V145.872H194.565V146.987Z" fill="#060606"/>
<path d="M209.968 147.344C209.835 147.064 209.651 146.813 209.425 146.604C209.159 146.369 208.851 146.19 208.518 146.074C208.151 145.937 207.764 145.868 207.374 145.872H202.839V152.619H204.444V150.589H207.356C207.747 150.597 208.134 150.528 208.5 150.388C208.833 150.277 209.141 150.1 209.406 149.868C209.636 149.656 209.821 149.402 209.95 149.117C210.082 148.831 210.147 148.519 210.142 148.203C210.143 147.908 210.085 147.615 209.968 147.344ZM208.046 149.172C207.929 149.295 207.787 149.394 207.632 149.461C207.475 149.529 207.308 149.564 207.138 149.565H204.544V146.823H207.111C207.452 146.825 207.779 146.962 208.018 147.206C208.144 147.334 208.243 147.486 208.31 147.652C208.376 147.818 208.41 147.996 208.409 148.175C208.419 148.365 208.39 148.554 208.322 148.73C208.255 148.906 208.151 149.066 208.018 149.199L208.046 149.172Z" fill="#060606"/>
</g>
<defs>
<clipPath id="clip0_753_387">
<rect width="230.964" height="153.048" fill="white" transform="translate(0.034668 0.975586)"/>
</clipPath>
</defs>
</svg>
