<svg width="307" height="33" viewBox="0 0 307 33" fill="none" xmlns="http://www.w3.org/2000/svg">
<g opacity="0.7" clip-path="url(#clip0_914_53)">
<path d="M39.2015 31.932H33.6672L33.5135 31.3292C33.2059 30.2746 33.6672 30.124 36.127 30.124C37.3568 30.124 38.4328 29.9733 38.5865 29.8227C38.7402 29.672 38.7402 26.056 38.7402 18.3719V7.07176L36.7418 10.5371C35.6657 12.4958 33.6672 16.4132 32.1298 19.2759C30.5927 22.1385 28.9016 25.4533 28.2866 26.5079C27.6716 27.5626 26.7492 29.0693 26.2881 29.9733C25.8268 30.7267 25.3657 31.4801 25.212 31.6307C24.2896 31.932 24.1357 31.4801 17.0642 18.8239C10.4537 6.92109 9.99253 6.16776 9.83882 6.77043C9.68508 7.22244 9.07015 15.5092 8.76269 23.1932C8.60895 26.5079 8.76269 28.0147 9.68508 28.9187C9.99253 29.2199 10.9149 29.5212 12.1448 29.672C14.6045 29.9733 14.7582 30.124 14.7582 30.8773V31.4801H7.37911C0.153732 31.4801 0 31.4801 0 31.028C0 30.4252 0.768657 29.9733 2.76716 29.2199C5.07315 28.4666 5.3806 28.3159 5.68806 26.8092C5.53434 26.3573 6.14925 22.1385 6.45673 17.6185C6.76418 13.0985 7.37911 8.72912 7.37911 7.82511C7.99404 3.00374 7.99404 2.85306 5.3806 2.25039C3.22835 1.64772 2.9209 1.49705 3.07464 0.894378C3.22835 -0.0096302 4.30448 -0.160298 7.07166 0.141038C8.45524 0.291706 10.4537 0.442375 11.6836 0.442375C13.3746 0.442375 13.9896 0.442375 14.297 0.894378C14.7582 1.49705 17.6791 6.61976 22.4449 15.8105C24.597 19.8786 26.4418 23.344 26.5955 23.4946C26.7492 23.6453 27.0568 23.7959 27.2105 23.6453C27.6716 23.1932 37.0494 5.11308 37.9717 3.00374C38.4328 1.94906 38.8941 0.894378 39.0478 0.894378C39.2015 0.743709 41.6613 0.743709 44.7358 0.593041C50.1165 0.442375 50.1165 0.442375 50.2702 1.04505C50.2702 1.49705 50.2702 1.64772 49.3478 1.79839C47.3493 2.09971 46.4269 2.40106 45.9656 3.00374C45.5045 3.45574 45.5045 3.90774 45.5045 16.7145V29.9733L46.2732 30.124C46.5806 30.124 47.6567 30.2746 48.4254 30.4252C50.1165 30.5761 51.0389 31.028 51.0389 31.6307C51.0389 32.2332 50.4239 32.2332 47.503 32.2332C45.8119 32.0826 42.1224 32.0826 39.2015 31.932Z" fill="black"/>
<path d="M74.2531 31.7809C73.0233 31.6302 71.6396 31.1781 71.6396 30.8769C71.6396 30.2741 72.2546 29.9729 73.0233 29.9729C73.9457 29.9729 75.6368 29.2195 76.2516 28.617C76.7129 28.1649 84.707 11.5914 86.3978 7.82468L86.8591 6.61935L86.2441 5.56467C85.783 4.96199 85.6293 4.50999 85.783 4.20866C85.9367 3.90731 87.3202 3.30463 88.0889 3.30463C88.5502 3.30463 89.4726 2.40063 89.78 1.64729C89.78 1.34596 90.0874 1.04462 90.5487 1.04462C91.3174 1.04462 90.8561 -0.160723 96.5441 15.2074C102.232 30.1235 101.925 29.6716 102.54 29.9729C102.847 30.1235 103.616 30.2741 104.538 30.2741C106.383 30.2741 106.998 30.5756 106.998 31.329C106.998 31.7809 106.691 31.7809 98.6965 31.9315C94.0845 31.9315 90.395 31.9315 90.2413 31.9315C89.78 31.7809 89.9337 31.1781 90.5487 30.7262C90.8561 30.425 91.6248 30.2741 92.8545 30.2741C94.6993 30.2741 95.6217 29.9729 95.6217 29.3701C95.6217 28.9182 93.3158 23.1927 92.8545 22.7408C92.5471 22.2887 91.9322 22.2887 87.4741 22.2887C83.0159 22.2887 82.4009 22.2887 81.9396 22.7408C81.4785 23.1927 79.7874 27.5621 79.7874 28.617C79.7874 29.3701 80.7098 29.8222 82.5546 30.1235C83.477 30.1235 84.3994 30.425 84.8607 30.5756C85.4755 30.8769 85.6293 31.7809 85.0144 31.7809C83.9383 31.7809 75.0218 31.7809 74.2531 31.7809ZM91.7785 20.7822C91.9322 20.7822 92.2397 20.4807 92.2397 20.1794C92.2397 19.5767 88.3965 10.0847 88.0889 9.63269C87.9352 9.48204 87.6278 9.33136 87.4741 9.48204C87.0128 9.93404 83.1696 19.1248 83.1696 19.7275C83.1696 20.0288 83.1696 20.3301 83.1696 20.3301C83.1696 20.3301 84.8607 20.4807 86.8591 20.4807C88.8576 20.4807 90.7024 20.6315 91.0098 20.6315C91.3174 20.6315 91.6248 20.9328 91.7785 20.7822Z" fill="black"/>
<path d="M190.935 31.7809C189.705 31.6302 188.322 31.1781 188.322 30.8769C188.322 30.2741 188.937 29.9729 189.706 29.9729C190.628 29.9729 192.319 29.2195 192.934 28.617C193.241 28.1649 201.388 11.7421 203.08 7.82468L203.541 6.61933L202.927 5.56467C202.466 4.96199 202.311 4.50999 202.466 4.20866C202.618 3.90731 204.003 3.30463 204.771 3.30463C205.233 3.30463 206.156 2.40063 206.463 1.64729C206.615 1.19529 206.924 1.04462 207.386 1.04462C208.154 1.04462 207.693 -0.160723 213.381 15.2074C219.067 30.1235 218.76 29.6716 219.376 29.9729C219.683 30.1235 220.452 30.2741 221.375 30.2741C223.219 30.2741 223.835 30.5756 223.835 31.329C223.835 31.9315 224.603 31.9315 215.07 31.7809C210.921 31.7809 207.386 31.7809 207.231 31.7809C206.77 31.7809 206.924 31.0275 207.386 30.7262C207.693 30.425 208.461 30.2741 209.691 30.2741C211.535 30.2741 212.458 29.9729 212.458 29.3701C212.458 28.9182 210.153 23.1927 209.691 22.7408C209.384 22.2887 208.768 22.2887 204.31 22.2887C199.851 22.2887 199.237 22.2887 198.776 22.7408C198.314 23.1927 196.623 27.5621 196.623 28.617C196.623 29.3701 197.546 29.8222 199.39 30.1235C200.313 30.1235 201.236 30.425 201.697 30.5756C202.311 30.8769 202.466 31.7809 201.85 31.7809C200.62 31.7809 191.55 31.7809 190.935 31.7809ZM208.461 20.7822C208.614 20.7822 208.923 20.4807 208.923 20.1794C208.923 19.5767 205.078 10.0847 204.771 9.63269C204.617 9.48204 204.31 9.33136 204.157 9.48204C203.696 9.93404 199.851 19.1248 199.851 19.7275C199.851 20.0288 199.851 20.3301 199.851 20.3301C199.851 20.3301 201.543 20.4807 203.541 20.4807C205.54 20.4807 207.386 20.6315 207.693 20.6315C208 20.6315 208.154 20.9328 208.461 20.7822Z" fill="black"/>
<path d="M245.507 31.6314C245.2 31.4806 245.047 31.33 245.047 31.0287C245.047 30.2753 245.507 29.9741 247.66 29.8234C248.89 29.6726 249.965 29.522 249.965 29.522C250.274 29.2207 250.274 3.6071 249.965 3.00445C249.813 2.55244 249.506 2.55244 247.505 2.55244C244.893 2.55244 244.431 2.40177 244.431 1.64843C244.431 0.59375 244.586 0.59375 253.503 0.59375H261.804V1.19642C261.956 1.94977 261.188 2.40177 259.498 2.40177C258.882 2.40177 257.959 2.40177 257.652 2.55244L256.884 2.7031V15.6605C256.884 22.742 256.884 28.7686 257.038 29.0701C257.191 29.3713 257.652 29.522 259.498 29.522C261.035 29.522 261.956 29.6726 262.111 29.8234C262.572 30.2753 262.418 31.1793 261.956 31.4806C261.342 32.0833 246.123 31.9327 245.507 31.6314Z" fill="black"/>
<path d="M128.214 31.0293C128.214 30.2759 128.368 30.2759 131.288 29.9746C132.365 29.9746 133.287 29.824 133.441 29.6731C133.748 29.5225 133.748 3.457 133.441 2.70366C133.287 2.10099 133.133 2.10099 131.135 2.10099C128.675 2.10099 128.06 1.79965 128.368 0.89564L128.521 0.292969H139.744C150.659 0.443637 150.966 0.443637 152.657 0.89564C155.578 1.79965 157.423 3.30632 158.345 5.56636C159.114 7.37437 159.114 10.8397 158.345 12.4971C157.73 13.8531 155.732 15.2091 153.426 16.2638C152.811 16.5651 152.196 16.8664 152.196 16.8664C152.196 17.1678 157.884 23.6466 159.421 25.3039C162.035 28.016 164.956 29.5225 168.184 30.2759C168.645 30.4265 168.799 30.5772 168.799 31.0293V31.632H159.729C154.809 31.632 150.505 31.4812 150.351 31.4812C150.197 31.3305 150.044 31.0293 150.044 30.8786C150.044 30.4265 150.351 30.4265 152.196 30.2759C153.272 30.2759 154.348 30.1252 154.348 29.9746C154.502 29.824 152.196 26.9611 149.275 23.6466L144.048 17.4691L142.05 17.3185C140.512 17.1678 140.051 17.1678 139.898 17.4691C139.59 17.9211 139.59 26.9611 139.898 28.1666C140.205 29.6731 140.82 30.1252 142.818 30.2759C144.509 30.4265 144.509 30.4265 144.509 31.0293V31.632H136.362H128.214V31.0293ZM145.278 15.2091C147.584 14.6064 149.429 13.8531 150.044 13.0998C151.427 11.5931 152.042 7.97704 151.12 5.86768C150.351 3.909 148.045 2.40232 145.278 1.79965C143.126 1.34764 140.82 1.49831 140.205 1.95031C139.59 2.25166 139.59 2.40232 139.59 8.5797C139.59 12.0451 139.744 14.9078 139.744 15.0584C140.205 15.9624 142.511 15.9624 145.278 15.2091Z" fill="black"/>
<path d="M290.551 31.0292C286.863 29.8237 284.71 28.1665 284.71 26.8104C284.71 26.5091 284.864 25.6051 285.171 25.0024C285.478 24.3996 285.785 23.1944 286.094 22.2904C286.554 20.633 287.015 20.0304 287.631 20.633C287.784 20.7836 287.938 21.3864 287.938 21.8385C287.938 22.2904 288.093 23.4956 288.4 24.249C289.782 28.1665 292.551 30.1251 296.394 29.8237C298.547 29.673 299.929 29.0705 301.159 27.7144C302.235 26.5091 302.544 25.3037 302.082 23.4956C301.466 20.4824 299.775 19.4277 292.397 17.1677C288.4 15.9623 286.554 14.6063 285.326 12.3463C284.403 10.3876 284.248 7.52492 285.171 5.86756C286.554 3.45688 289.014 1.34753 291.781 0.744854C294.702 -0.00848594 298.547 0.744854 300.852 2.4022C302.082 3.3062 302.544 3.3062 303.158 2.70354C304.388 1.49819 304.849 2.55287 304.233 5.41556C303.312 9.63426 302.696 11.1409 301.928 10.0863C301.775 9.78494 301.466 9.18226 301.466 8.73026C301.159 6.92224 300.545 5.56624 299.315 4.36088C297.624 2.70354 296.855 2.25154 294.395 2.25154C292.551 2.25154 292.242 2.25154 291.321 3.00487C289.323 4.36088 288.707 7.22357 289.782 9.03158C290.705 10.3876 292.551 11.4423 296.548 12.6476C301.314 14.1543 303.312 15.209 304.849 16.8663C306.386 18.5237 307 20.0304 307 22.5916C307 24.8517 306.541 26.057 304.695 28.3171C302.851 30.5771 299.315 31.9332 295.009 31.9332C293.011 31.6319 292.242 31.4811 290.551 31.0292Z" fill="black"/>
</g>
<defs>
<clipPath id="clip0_914_53">
<rect width="307" height="33" fill="white"/>
</clipPath>
</defs>
</svg>
