<svg width="278" height="56" viewBox="0 0 278 56" fill="none" xmlns="http://www.w3.org/2000/svg">
<g opacity="0.7" clip-path="url(#clip0_914_36)">
<path d="M8.0836 2.32011C6.965 4.10985 -0.52953 34.4235 0.0297641 34.8711C1.14835 35.9897 3.83296 33.8643 4.16854 31.5153C4.50412 29.1663 5.17526 28.9425 11.8868 28.6069C19.2695 28.2713 19.3813 28.2713 20.5 31.7389C21.171 33.5287 22.5134 35.0947 23.4082 35.0947C25.5336 35.0947 25.5336 34.4235 24.1912 29.9493C22.4016 24.3563 18.5983 11.2688 17.3679 6.23517C16.2493 1.87268 15.9137 1.53711 12.3342 1.53711C10.2089 1.53711 8.30732 1.87268 8.0836 2.32011ZM15.8019 14.5127C17.256 19.3227 18.4865 23.6851 18.4865 24.1325C18.4865 24.6919 15.69 25.0275 12.3342 25.0275C8.97846 25.0275 6.182 24.8037 6.182 24.4681C6.182 21.3361 11.2156 4.89287 12.1105 5.22845C12.7817 5.45217 14.4595 9.59093 15.8019 14.5127Z" fill="black"/>
<path d="M48.911 18.4274L49.2466 34.3114L57.4122 34.1994C61.9984 34.1994 65.9136 33.8638 66.249 33.5284C67.8152 31.9622 64.683 30.62 59.202 30.62H53.1616V16.6376C53.1616 3.32641 53.0498 2.65527 50.9244 2.65527C48.6872 2.65527 48.6872 3.21455 48.911 18.4274Z" fill="black"/>
<path d="M88.957 7.68893C88.957 11.9396 89.2926 12.7226 91.0824 12.7226C92.984 12.7226 93.2076 11.9396 93.0958 7.68893C92.872 3.66201 92.4246 2.65527 90.9704 2.65527C89.2926 2.65527 88.957 3.66201 88.957 7.68893Z" fill="black"/>
<path d="M119.16 18.2037C119.16 28.0473 119.608 34.0877 120.391 34.5351C122.292 35.7655 122.851 34.4231 122.963 28.1591L123.075 22.2305H127.55C131.8 22.2305 132.136 22.4543 134.82 27.8235C138.512 35.0943 139.63 35.9893 142.65 33.9757C144.105 32.9691 143.993 32.6335 142.203 31.1793C140.973 30.2845 139.183 27.7117 138.176 25.3627C136.386 21.2239 136.386 21.0001 139.071 17.1969C140.973 14.4005 141.532 12.387 141.084 9.92609C139.966 4.33315 136.834 2.65527 127.438 2.65527H119.16V18.2037ZM135.715 7.35335C136.498 8.13635 137.058 10.038 137.058 11.604C137.058 15.8546 135.044 17.1969 128.668 17.1969H122.963L123.187 11.8277C123.299 8.91937 123.411 6.45847 123.523 6.23475C123.97 5.33989 134.597 6.23475 135.715 7.35335Z" fill="black"/>
<path d="M167.258 18.9867C167.258 33.4165 167.482 35.2063 169.048 34.6469C170.054 34.3113 174.529 33.9757 179.115 33.9757C185.715 33.9757 187.392 33.6401 187.392 32.2979C187.392 30.9555 185.715 30.6201 178.891 30.6201H170.502L170.837 25.2507L171.173 19.9934L177.996 19.8815C181.799 19.7697 185.491 19.4341 186.162 18.9867C189.182 17.0851 186.721 16.0783 179.003 16.0783H170.614V11.0447V6.01103H179.003C185.715 6.01103 187.392 5.67545 187.392 4.33315C187.392 2.99083 185.491 2.65527 177.325 2.65527H167.258V18.9867Z" fill="black"/>
<path d="M213.12 4.33317C213.12 5.67547 214.574 6.01105 219.83 6.01105C223.522 6.01105 226.542 6.34661 226.542 6.68219C226.542 7.12963 223.522 12.387 219.83 18.5392C216.14 24.5797 213.12 30.6199 213.12 31.7385C213.12 34.0877 213.454 34.0877 229.562 34.4231C231.688 34.5351 232.806 33.8639 233.03 32.5215C233.366 30.6199 232.694 30.5081 226.094 30.7319C222.068 30.8437 218.488 30.7319 218.152 30.5081C217.93 30.1725 220.95 24.4677 224.864 17.7562C228.892 11.0447 232.136 4.89245 232.136 4.10945C232.136 2.99085 229.674 2.65527 222.628 2.65527C214.908 2.65527 213.12 2.99085 213.12 4.33317Z" fill="black"/>
<path d="M257.864 18.6511V34.5351H267.594C275.984 34.5351 277.438 34.3113 277.774 32.5215C278.11 30.8437 277.102 30.6199 269.72 30.6199H261.22V25.0271V19.4341H269.05C275.314 19.4341 276.88 19.0985 276.88 17.7562C276.88 16.4139 275.314 16.0783 269.05 16.0783H261.22V11.0447V6.01105H269.608C276.32 6.01105 277.998 5.67547 277.998 4.33317C277.998 2.99085 276.096 2.65527 267.93 2.65527H257.864V18.6511Z" fill="black"/>
<path d="M90.077 48.5173C86.0502 48.9647 79.3386 49.4123 74.9762 49.5241C70.7254 49.6359 66.0274 49.9715 64.6852 50.3071C56.9668 52.4325 65.8038 52.9917 101.039 52.7679C122.404 52.6561 136.051 52.3205 131.465 51.8731C126.879 51.4257 124.306 51.0901 125.872 50.8663C127.438 50.7545 131.577 50.4189 135.268 50.0833C139.071 49.6359 142.091 49.8597 142.539 50.5309C142.986 51.2019 143.769 50.9783 144.664 50.0833C145.895 48.7411 144.217 48.5173 133.366 48.5173C126.319 48.5173 115.357 48.2937 108.981 48.0699C102.605 47.8463 94.104 47.9581 90.077 48.5173Z" fill="black"/>
<path d="M147.123 49.6362C147.123 50.1956 147.682 50.7548 148.242 50.7548C148.913 50.7548 149.36 50.1956 149.36 49.6362C149.36 48.965 148.913 48.5176 148.242 48.5176C147.682 48.5176 147.123 48.965 147.123 49.6362Z" fill="black"/>
<path d="M150.479 50.1956C150.479 51.0904 150.702 51.8734 150.926 51.8734C151.15 51.8734 151.597 51.0904 152.045 50.1956C152.38 49.3006 152.156 48.5176 151.597 48.5176C150.926 48.5176 150.479 49.3006 150.479 50.1956Z" fill="black"/>
<path d="M155.737 50.3077C156.073 51.3145 156.744 51.5383 157.079 50.9789C157.862 49.7485 161.665 49.8603 163.791 51.3145C164.797 51.8739 165.133 51.7619 164.574 50.9789C164.238 50.4197 164.574 49.6367 165.245 49.3011C166.028 49.0773 164.126 48.7417 160.882 48.7417C156.073 48.6299 155.178 48.9655 155.737 50.3077Z" fill="black"/>
<path d="M169.496 49.6362C169.496 50.1956 170.055 50.7548 170.615 50.7548C171.286 50.7548 171.733 50.1956 171.733 49.6362C171.733 48.965 171.286 48.5176 170.615 48.5176C170.055 48.5176 169.496 48.965 169.496 49.6362Z" fill="black"/>
<path d="M209.206 51.8735C209.542 52.4327 213.122 52.9919 217.148 52.9919C221.734 52.9919 224.196 52.5445 223.748 51.8735C223.412 51.2023 219.832 50.7549 215.806 50.7549C211.22 50.7549 208.758 51.2023 209.206 51.8735Z" fill="black"/>
<path d="M24.0794 52.6557C21.9542 52.7675 16.9205 53.3269 12.8936 53.6625C7.30064 54.2217 6.18206 54.5573 8.08366 55.3403C9.42596 55.7877 13.4529 55.7877 17.0324 55.2285C20.6118 54.6691 31.2384 53.9981 40.6346 53.7743C50.0308 53.4387 58.0846 52.9913 58.4202 52.5439C59.0912 51.8727 31.3502 51.8727 24.0794 52.6557Z" fill="black"/>
<path d="M228.782 52.9916C228.782 53.5508 229.34 54.1102 229.9 54.1102C230.57 54.1102 231.018 53.5508 231.018 52.9916C231.018 52.3204 230.57 51.873 229.9 51.873C229.34 51.873 228.782 52.3204 228.782 52.9916Z" fill="black"/>
<path d="M233.704 53.1038C233.48 53.5512 241.198 54.2222 250.93 54.6698C260.55 55.0052 269.052 55.4528 269.61 55.4528C274.084 55.6764 276.882 55.0052 276.882 53.7748C276.882 52.7682 271.848 52.4326 255.516 52.4326C243.772 52.4326 233.928 52.7682 233.704 53.1038Z" fill="black"/>
</g>
<defs>
<clipPath id="clip0_914_36">
<rect width="278" height="56" fill="white"/>
</clipPath>
</defs>
</svg>
